<?xml version="1.0" encoding="utf-8"?>
<!-- Generator: Adobe Illustrator 27.9.0, SVG Export Plug-In . SVG Version: 6.00 Build 0)  -->
<svg version="1.1" id="Layer_1" xmlns="http://www.w3.org/2000/svg" xmlns:xlink="http://www.w3.org/1999/xlink" x="0px" y="0px"
	 viewBox="0 0 326 326" style="enable-background:new 0 0 326 326;" xml:space="preserve">
<style type="text/css">
	.st0{fill:#043650;}
	.st1{fill:#FFFFFF;}
	.st2{fill:#3BC1CF;}
	.st3{fill-rule:evenodd;clip-rule:evenodd;fill:#052C43;}
	.st4{fill:none;stroke:#FFFFFF;stroke-linecap:round;stroke-linejoin:round;stroke-miterlimit:22.93;}
	.st5{fill-rule:evenodd;clip-rule:evenodd;fill:#FFFFFF;}
	.st6{fill:none;stroke:#FFFFFF;stroke-width:0.95;stroke-linecap:round;stroke-linejoin:round;stroke-miterlimit:22.93;}
	.st7{fill-rule:evenodd;clip-rule:evenodd;fill:#3BC1CF;}
	.st8{fill:#052C43;}
</style>
<rect class="st0" width="326" height="326"/>
<rect class="st0" width="326" height="326"/>
<polygon class="st1" points="62.3,94.1 64,94.1 64,83.2 60.9,83.2 60.9,84.7 62.3,84.7 "/>
<path class="st1" d="M68.3,93.1c0-0.6-0.5-1.1-1.1-1.1c-0.6,0-1.1,0.5-1.1,1.1s0.5,1.1,1.1,1.1C67.9,94.2,68.3,93.7,68.3,93.1z"/>
<path class="st1" d="M74.1,88.9c0,3.1,2.4,5.3,5.3,5.3c2.2,0,4.1-1.1,4.8-3.1h-2.1c-0.6,1.1-1.6,1.6-2.8,1.6c-2.1,0-3.6-1.5-3.6-3.8
	c0-2.4,1.5-3.8,3.6-3.8c1.2,0,2.2,0.5,2.8,1.6h2.1c-0.8-2-2.7-3.1-4.8-3.1C76.5,83.6,74.1,85.8,74.1,88.9z"/>
<path class="st1" d="M87.5,90c0-1.9,1.2-2.8,2.5-2.8c1.3,0,2.5,0.9,2.5,2.8c0,1.9-1.3,2.8-2.5,2.8C88.6,92.8,87.5,91.9,87.5,90z
	 M94.2,90c0-2.6-1.9-4.3-4.2-4.3c-2.4,0-4.2,1.7-4.2,4.3c0,2.6,1.8,4.3,4.1,4.3C92.2,94.2,94.2,92.6,94.2,90z"/>
<path class="st1" d="M101.7,94.1h1.7v-4.9c0-2.3-1.5-3.5-3.4-3.5c-1,0-1.9,0.4-2.5,1.1v-0.9h-1.7v8.3h1.7v-4.6
	c0-1.5,0.8-2.3,2.1-2.3c1.2,0,2.1,0.8,2.1,2.3V94.1z"/>
<path class="st1" d="M111.5,94.1h1.7v-4.9c0-2.3-1.5-3.5-3.4-3.5c-1,0-1.9,0.4-2.5,1.1v-0.9h-1.7v8.3h1.7v-4.6
	c0-1.5,0.8-2.3,2.1-2.3c1.2,0,2.1,0.8,2.1,2.3V94.1z"/>
<path class="st1" d="M122.7,91.7h-1.8c-0.3,0.7-0.9,1.2-1.9,1.2c-1.3,0-2.2-0.8-2.3-2.2h6.3c0.1-0.3,0.1-0.6,0.1-0.8
	c0-2.4-1.7-4.1-4-4.1c-2.4,0-4.1,1.7-4.1,4.3c0,2.6,1.8,4.3,4.1,4.3C120.9,94.2,122.2,93.1,122.7,91.7z M118.8,87.2
	c1.3,0,2.3,0.8,2.3,2.1h-4.6C116.7,87.9,117.6,87.2,118.8,87.2z"/>
<path class="st1" d="M124,90c0,2.6,1.7,4.3,4,4.3c2,0,3.3-1.1,3.8-2.7H130c-0.3,0.9-0.9,1.3-2,1.3c-1.4,0-2.3-1-2.3-2.8
	c0-1.8,0.9-2.8,2.3-2.8c1,0,1.7,0.5,2,1.3h1.8c-0.5-1.7-1.8-2.8-3.8-2.8C125.7,85.7,124,87.4,124,90z"/>
<path class="st1" d="M133.8,91.8c0,1.7,0.9,2.3,2.4,2.3h1.3v-1.4h-1c-0.7,0-1-0.3-1-0.9v-4.6h2v-1.4h-2v-2.1h-1.7v2.1h-1v1.4h1V91.8
	z"/>
<path class="st1" d="M149.8,90c0,1.8-1.2,2.8-2.5,2.8c-1.3,0-2.5-1-2.5-2.8c0-1.8,1.2-2.7,2.5-2.7C148.6,87.2,149.8,88.2,149.8,90z
	 M143.1,89.9c0,2.6,1.7,4.3,3.9,4.3c1.3,0,2.3-0.6,2.9-1.4v1.2h1.7V83h-1.7v4c-0.6-0.8-1.8-1.3-2.8-1.3
	C144.8,85.7,143.1,87.4,143.1,89.9z"/>
<path class="st1" d="M161.2,91.7h-1.8c-0.3,0.7-0.9,1.2-1.9,1.2c-1.3,0-2.2-0.8-2.3-2.2h6.3c0.1-0.3,0.1-0.6,0.1-0.8
	c0-2.4-1.7-4.1-4-4.1c-2.4,0-4.1,1.7-4.1,4.3c0,2.6,1.8,4.3,4.1,4.3C159.4,94.2,160.7,93.1,161.2,91.7z M157.3,87.2
	c1.3,0,2.3,0.8,2.3,2.1H155C155.2,87.9,156.1,87.2,157.3,87.2z"/>
<polygon class="st1" points="162.1,85.9 165.2,94.1 167.3,94.1 170.4,85.9 168.6,85.9 166.3,92.6 163.9,85.9 "/>
<path class="st1" d="M172.6,84.8c0.6,0,1.1-0.5,1.1-1.1c0-0.6-0.5-1.1-1.1-1.1c-0.6,0-1.1,0.5-1.1,1.1
	C171.5,84.3,172,84.8,172.6,84.8z M171.7,94.1h1.7v-8.3h-1.7V94.1z"/>
<path class="st1" d="M175.1,90c0,2.6,1.7,4.3,4.1,4.3c2,0,3.3-1.1,3.8-2.7h-1.8c-0.3,0.9-0.9,1.3-2,1.3c-1.4,0-2.3-1-2.3-2.8
	c0-1.8,0.9-2.8,2.3-2.8c1,0,1.7,0.5,2,1.3h1.8c-0.5-1.7-1.8-2.8-3.8-2.8C176.8,85.7,175.1,87.4,175.1,90z"/>
<path class="st1" d="M192,91.7h-1.9c-0.3,0.7-0.9,1.2-1.9,1.2c-1.3,0-2.2-0.8-2.3-2.2h6.3c0.1-0.3,0.1-0.6,0.1-0.8
	c0-2.4-1.7-4.1-4-4.1c-2.4,0-4.1,1.7-4.1,4.3c0,2.6,1.8,4.3,4.1,4.3C190.3,94.2,191.6,93.1,192,91.7z M188.2,87.2
	c1.3,0,2.3,0.8,2.3,2.1h-4.6C186.1,87.9,187,87.2,188.2,87.2z"/>
<path class="st1" d="M198.7,91.8c0,1.7,0.9,2.3,2.4,2.3h1.3v-1.4h-1c-0.7,0-1-0.3-1-0.9v-4.6h2v-1.4h-2v-2.1h-1.7v2.1h-1v1.4h1V91.8
	z"/>
<path class="st1" d="M205.2,90c0-1.9,1.2-2.8,2.4-2.8c1.3,0,2.5,0.9,2.5,2.8c0,1.9-1.3,2.8-2.5,2.8C206.3,92.8,205.2,91.9,205.2,90z
	 M211.9,90c0-2.6-1.9-4.3-4.2-4.3c-2.4,0-4.2,1.7-4.2,4.3c0,2.6,1.8,4.3,4.1,4.3C210,94.2,211.9,92.6,211.9,90z"/>
<path class="st1" d="M224.8,89.9c0,1.8-1.2,2.8-2.5,2.8c-1.3,0-2.5-1-2.5-2.8c0-1.8,1.2-2.8,2.5-2.8
	C223.6,87.2,224.8,88.2,224.8,89.9z M219.8,87.1v-1.2h-1.7V98h1.7v-5.1c0.5,0.6,1.5,1.3,2.9,1.3c2.2,0,3.9-1.8,3.9-4.3
	c0-2.5-1.7-4.2-3.9-4.2C221.3,85.7,220.3,86.4,219.8,87.1z"/>
<path class="st1" d="M229.4,90c0-1.9,1.2-2.8,2.5-2.8c1.3,0,2.5,0.9,2.5,2.8c0,1.9-1.3,2.8-2.5,2.8C230.5,92.8,229.4,91.9,229.4,90z
	 M236.1,90c0-2.6-1.9-4.3-4.2-4.3c-2.4,0-4.2,1.7-4.2,4.3c0,2.6,1.8,4.3,4.1,4.3C234.2,94.2,236.1,92.6,236.1,90z"/>
<polygon class="st1" points="239.4,94.1 241.2,94.1 242.9,88 244.5,94.1 246.3,94.1 248.9,85.9 247.2,85.9 245.5,92.5 243.8,85.9 
	242.1,85.9 240.3,92.5 238.6,85.9 236.8,85.9 "/>
<path class="st1" d="M257.5,91.7h-1.8c-0.3,0.7-0.9,1.2-1.9,1.2c-1.3,0-2.2-0.8-2.4-2.2h6.3c0-0.3,0.1-0.6,0.1-0.8
	c0-2.4-1.7-4.1-4-4.1c-2.5,0-4.1,1.7-4.1,4.3c0,2.6,1.8,4.3,4.1,4.3C255.8,94.2,257.1,93.1,257.5,91.7z M253.7,87.2
	c1.3,0,2.3,0.8,2.3,2.1h-4.6C251.6,87.9,252.5,87.2,253.7,87.2z"/>
<path class="st1" d="M61,123.2h7.3v-1.4h-4.8c1.8-1.6,4.4-3.6,4.4-6.3c0-2-1.3-3.3-3.5-3.3c-1.9,0-3.5,1.2-3.5,3.5h1.7
	c0-1.2,0.7-2.1,1.9-2.1c1.3,0,1.8,0.8,1.8,1.9c0,2.2-2.7,4.1-5.3,6.4V123.2z"/>
<path class="st1" d="M71.8,122.4c0-0.6-0.5-1.1-1.1-1.1c-0.6,0-1.1,0.5-1.1,1.1c0,0.6,0.5,1.1,1.1,1.1
	C71.3,123.5,71.8,123,71.8,122.4z"/>
<path class="st1" d="M77.5,118.1c0,3.1,2.4,5.3,5.3,5.3c2.2,0,4.1-1.1,4.8-3.1h-2.1c-0.6,1.1-1.5,1.6-2.8,1.6
	c-2.1,0-3.6-1.5-3.6-3.8c0-2.3,1.5-3.8,3.6-3.8c1.2,0,2.2,0.5,2.8,1.6h2.1c-0.8-2-2.7-3.1-4.8-3.1C79.9,112.8,77.5,115,77.5,118.1z"
	/>
<path class="st1" d="M90.9,119.2c0-1.9,1.2-2.8,2.4-2.8c1.3,0,2.5,0.9,2.5,2.8c0,1.9-1.3,2.8-2.5,2.8C92,122,90.9,121.1,90.9,119.2z
	 M97.6,119.2c0-2.6-1.9-4.3-4.2-4.3c-2.3,0-4.2,1.7-4.2,4.3c0,2.6,1.8,4.3,4.1,4.3C95.6,123.5,97.6,121.8,97.6,119.2z"/>
<path class="st1" d="M105.1,123.4h1.7v-4.9c0-2.3-1.4-3.5-3.4-3.5c-1,0-1.9,0.4-2.5,1.1v-0.9h-1.7v8.3h1.7v-4.6
	c0-1.5,0.8-2.3,2.1-2.3c1.2,0,2.1,0.8,2.1,2.3V123.4z"/>
<path class="st1" d="M114.9,123.4h1.7v-4.9c0-2.3-1.5-3.5-3.4-3.5c-1,0-1.9,0.4-2.5,1.1v-0.9H109v8.3h1.7v-4.6
	c0-1.5,0.8-2.3,2.1-2.3c1.2,0,2.1,0.8,2.1,2.3V123.4z"/>
<path class="st1" d="M126.1,120.9h-1.8c-0.3,0.6-0.9,1.2-1.9,1.2c-1.3,0-2.2-0.8-2.4-2.2h6.3c0.1-0.3,0.1-0.6,0.1-0.8
	c0-2.4-1.7-4.1-4-4.1c-2.5,0-4.1,1.7-4.1,4.3c0,2.6,1.8,4.3,4.1,4.3C124.3,123.5,125.6,122.3,126.1,120.9z M122.2,116.4
	c1.3,0,2.3,0.8,2.3,2.1h-4.6C120.1,117.2,121.1,116.4,122.2,116.4z"/>
<path class="st1" d="M127.4,119.2c0,2.6,1.7,4.3,4,4.3c2,0,3.3-1.1,3.8-2.7h-1.8c-0.3,0.8-0.9,1.3-2,1.3c-1.4,0-2.3-1-2.3-2.8
	c0-1.8,0.9-2.8,2.3-2.8c1,0,1.7,0.5,2,1.3h1.8c-0.5-1.7-1.8-2.7-3.8-2.7C129.1,115,127.4,116.6,127.4,119.2z"/>
<path class="st1" d="M137.2,121.1c0,1.7,0.9,2.3,2.4,2.3h1.3v-1.4h-1.1c-0.7,0-1-0.2-1-0.9v-4.6h2v-1.4h-2V113h-1.7v2.1h-1v1.4h1
	V121.1z"/>
<path class="st1" d="M154.4,120.9h-1.8c-0.3,0.6-0.9,1.2-1.9,1.2c-1.3,0-2.2-0.8-2.4-2.2h6.3c0-0.3,0.1-0.6,0.1-0.8
	c0-2.4-1.7-4.1-4-4.1c-2.4,0-4.1,1.7-4.1,4.3c0,2.6,1.8,4.3,4.1,4.3C152.6,123.5,153.9,122.3,154.4,120.9z M150.5,116.4
	c1.3,0,2.3,0.8,2.3,2.1h-4.6C148.5,117.2,149.4,116.4,150.5,116.4z"/>
<path class="st1" d="M156.6,121.1c0,1.7,0.9,2.3,2.4,2.3h1.3v-1.4h-1c-0.7,0-1-0.2-1-0.9v-4.6h2v-1.4h-2V113h-1.7v2.1h-1v1.4h1
	V121.1z"/>
<path class="st1" d="M161.9,123.4h1.7v-4.6c0-1.5,0.8-2.3,2.1-2.3c1.2,0,2.1,0.8,2.1,2.3v4.6h1.7v-4.9c0-2.3-1.4-3.5-3.3-3.5
	c-1.1,0-2,0.4-2.6,1.1v-3.8h-1.7V123.4z"/>
<path class="st1" d="M179,120.9h-1.8c-0.3,0.6-0.9,1.2-2,1.2c-1.2,0-2.2-0.8-2.3-2.2h6.3c0-0.3,0.1-0.6,0.1-0.8c0-2.4-1.7-4.1-4-4.1
	c-2.4,0-4.1,1.7-4.1,4.3c0,2.6,1.8,4.3,4.1,4.3C177.2,123.5,178.5,122.3,179,120.9z M175.1,116.4c1.3,0,2.3,0.8,2.3,2.1h-4.6
	C173,117.2,173.9,116.4,175.1,116.4z"/>
<path class="st1" d="M182.6,119c0-1.8,0.8-2.3,2-2.3h0.4V115c-1.2,0-2,0.5-2.5,1.3v-1.2h-1.7v8.3h1.7V119z"/>
<path class="st1" d="M261.5,89.8c0-1.8,0.8-2.3,2-2.3h0.4v-1.8c-1.2,0-2,0.5-2.5,1.3v-1.2h-1.7v8.3h1.7V89.8z"/>
<path class="st1" d="M192.5,123.4h1.7v-4.9c0-2.3-1.4-3.5-3.4-3.5c-1,0-1.9,0.4-2.5,1.1v-0.9h-1.7v8.3h1.7v-4.6
	c0-1.5,0.8-2.3,2.1-2.3c1.2,0,2.1,0.8,2.1,2.3V123.4z"/>
<path class="st1" d="M203.7,120.9h-1.8c-0.3,0.6-0.9,1.2-2,1.2c-1.3,0-2.2-0.8-2.3-2.2h6.3c0-0.3,0.1-0.6,0.1-0.8
	c0-2.4-1.7-4.1-4-4.1c-2.4,0-4.1,1.7-4.1,4.3c0,2.6,1.8,4.3,4.1,4.3C202,123.5,203.3,122.3,203.7,120.9z M199.9,116.4
	c1.3,0,2.3,0.8,2.3,2.1h-4.6C197.8,117.2,198.7,116.4,199.9,116.4z"/>
<path class="st1" d="M205.9,121.1c0,1.7,0.9,2.3,2.4,2.3h1.3v-1.4h-1.1c-0.7,0-1-0.2-1-0.9v-4.6h2v-1.4h-2V113h-1.7v2.1h-1v1.4h1
	V121.1z"/>
<path class="st1" d="M61.1,144.4h1.7c0.1-0.8,0.7-1.5,1.9-1.5c1.2,0,1.8,0.6,1.8,1.6c0,1.2-1,1.6-2.5,1.6h-0.4v1.4h0.4
	c1.8,0,2.7,0.5,2.7,1.9c0,1-0.6,1.8-1.9,1.8c-1.3,0-2-0.8-2.1-1.8h-1.7c0.1,2.2,1.7,3.2,3.8,3.2c2.3,0,3.5-1.3,3.5-3.1
	c0-1.5-0.7-2.5-1.9-2.8v-0.1c0.9-0.3,1.7-1.2,1.7-2.5c0-1.6-1.2-2.9-3.4-2.9C62.7,141.4,61.2,142.5,61.1,144.4z"/>
<path class="st1" d="M72,151.6c0-0.6-0.5-1.1-1.1-1.1c-0.6,0-1.1,0.5-1.1,1.1c0,0.6,0.5,1.1,1.1,1.1C71.5,152.7,72,152.2,72,151.6z"
	/>
<path class="st1" d="M85.4,149.7c0-3.8-5.5-2.3-5.5-4.7c0-1,0.8-1.5,1.8-1.5c1.1,0,1.7,0.7,1.8,1.4h1.9c-0.2-1.8-1.6-2.8-3.6-2.8
	c-2.1,0-3.6,1.1-3.6,3c0,3.8,5.5,2.2,5.5,4.7c0,0.9-0.7,1.5-1.9,1.5c-1.2,0-1.8-0.7-1.9-1.5h-1.8c0,1.8,1.6,3,3.7,3
	C84.1,152.7,85.4,151.2,85.4,149.7z"/>
<path class="st1" d="M86.8,148.5c0,2.6,1.7,4.3,4.1,4.3c2,0,3.3-1.1,3.8-2.7h-1.8c-0.3,0.8-0.9,1.3-2,1.3c-1.4,0-2.3-1-2.3-2.8
	c0-1.8,0.9-2.8,2.3-2.8c1,0,1.7,0.5,2,1.3h1.8c-0.5-1.7-1.8-2.7-3.8-2.7C88.5,144.2,86.8,145.9,86.8,148.5z"/>
<path class="st1" d="M102.6,148.5c0,1.8-1.2,2.8-2.5,2.8c-1.3,0-2.5-1-2.5-2.8c0-1.8,1.2-2.8,2.5-2.8
	C101.4,145.7,102.6,146.7,102.6,148.5z M95.8,148.4c0,2.6,1.7,4.3,3.9,4.3c1.4,0,2.4-0.7,2.9-1.4v1.2h1.7v-8.3h-1.7v1.2
	c-0.5-0.7-1.5-1.3-2.9-1.3C97.6,144.2,95.8,145.9,95.8,148.4z"/>
<path class="st1" d="M112.4,152.6h1.7v-4.9c0-2.3-1.5-3.5-3.4-3.5c-1,0-1.9,0.4-2.5,1.1v-0.9h-1.7v8.3h1.7V148
	c0-1.5,0.8-2.3,2.1-2.3c1.2,0,2.1,0.8,2.1,2.3V152.6z"/>
<path class="st1" d="M130.9,147.4c0-3.1-2.3-5.3-5.3-5.3c-2.9,0-5.3,2.2-5.3,5.3c0,3.1,2.4,5.3,5.3,5.3c0.5,0,1-0.1,1.5-0.2l1.8,2
	h2.2l-2.5-2.7C130,150.9,130.9,149.3,130.9,147.4z M122,147.4c0-2.3,1.5-3.8,3.6-3.8c2.1,0,3.6,1.5,3.6,3.8c0,2.4-1.5,3.9-3.6,3.9
	C123.5,151.2,122,149.7,122,147.4z"/>
<path class="st1" d="M132.6,142.2v10.4h1.7v-4.2h1.3l2.4,4.2h2l-2.6-4.3c1.8-0.4,2.4-1.8,2.4-3c0-1.7-1.2-3.1-3.7-3.1H132.6z
	 M138.1,145.3c0,1-0.6,1.8-1.9,1.8h-1.9v-3.5h1.9C137.5,143.6,138.1,144.3,138.1,145.3z"/>
<path class="st1" d="M146,148.5c0,2.6,1.7,4.3,4,4.3c2,0,3.3-1.1,3.8-2.7H152c-0.3,0.8-0.9,1.3-2,1.3c-1.4,0-2.3-1-2.3-2.8
	c0-1.8,0.9-2.8,2.3-2.8c1,0,1.7,0.5,2,1.3h1.8c-0.5-1.7-1.8-2.7-3.8-2.7C147.7,144.2,146,145.9,146,148.5z"/>
<path class="st1" d="M156.8,148.5c0-1.9,1.2-2.8,2.4-2.8c1.3,0,2.5,0.9,2.5,2.8c0,1.9-1.3,2.8-2.5,2.8
	C157.9,151.3,156.8,150.3,156.8,148.5z M163.5,148.5c0-2.6-1.9-4.3-4.2-4.3c-2.4,0-4.2,1.7-4.2,4.3c0,2.6,1.8,4.3,4.1,4.3
	C161.5,152.7,163.5,151.1,163.5,148.5z"/>
<path class="st1" d="M171.4,148.5c0,1.8-1.2,2.8-2.5,2.8c-1.3,0-2.5-1-2.5-2.8c0-1.8,1.2-2.8,2.5-2.8
	C170.1,145.7,171.4,146.7,171.4,148.5z M164.6,148.4c0,2.6,1.7,4.3,3.9,4.3c1.3,0,2.3-0.6,2.9-1.4v1.2h1.7v-11.1h-1.7v4
	c-0.6-0.8-1.8-1.3-2.8-1.3C166.3,144.2,164.6,145.9,164.6,148.4z"/>
<path class="st1" d="M182.7,150.2h-1.8c-0.3,0.6-0.9,1.2-1.9,1.2c-1.3,0-2.2-0.8-2.4-2.2h6.3c0-0.3,0.1-0.6,0.1-0.8
	c0-2.4-1.7-4.1-4-4.1c-2.5,0-4.1,1.7-4.1,4.3c0,2.6,1.8,4.3,4.1,4.3C180.9,152.7,182.2,151.6,182.7,150.2z M178.8,145.7
	c1.3,0,2.3,0.8,2.3,2.1h-4.6C176.7,146.4,177.7,145.7,178.8,145.7z"/>
<path class="st1" d="M190.3,148.5c0-1.9,1.2-2.8,2.4-2.8c1.3,0,2.5,0.9,2.5,2.8c0,1.9-1.3,2.8-2.5,2.8
	C191.4,151.3,190.3,150.3,190.3,148.5z M197,148.5c0-2.6-1.9-4.3-4.2-4.3c-2.4,0-4.2,1.7-4.2,4.3c0,2.6,1.8,4.3,4.1,4.3
	C195,152.7,197,151.1,197,148.5z"/>
<path class="st1" d="M204.5,152.6h1.7v-4.9c0-2.3-1.5-3.5-3.4-3.5c-1,0-1.9,0.4-2.5,1.1v-0.9h-1.7v8.3h1.7V148
	c0-1.5,0.8-2.3,2.1-2.3c1.2,0,2.1,0.8,2.1,2.3V152.6z"/>
<path class="st1" d="M219.1,148.5c0,1.8-1.2,2.8-2.5,2.8c-1.3,0-2.5-1-2.5-2.8c0-1.8,1.2-2.8,2.5-2.8
	C217.9,145.7,219.1,146.7,219.1,148.5z M212.3,148.4c0,2.6,1.7,4.3,3.9,4.3c1.3,0,2.3-0.6,2.9-1.4v1.2h1.7v-11.1h-1.7v4
	c-0.6-0.8-1.8-1.3-2.8-1.3C214,144.2,212.3,145.9,212.3,148.4z"/>
<path class="st1" d="M230.4,150.2h-1.9c-0.3,0.6-0.9,1.2-1.9,1.2c-1.3,0-2.2-0.8-2.3-2.2h6.3c0.1-0.3,0.1-0.6,0.1-0.8
	c0-2.4-1.7-4.1-4-4.1c-2.4,0-4.1,1.7-4.1,4.3c0,2.6,1.8,4.3,4.1,4.3C228.6,152.7,229.9,151.6,230.4,150.2z M226.5,145.7
	c1.3,0,2.3,0.8,2.3,2.1h-4.6C224.4,146.4,225.4,145.7,226.5,145.7z"/>
<path class="st1" d="M261.6,150.2h-1.9c-0.3,0.6-0.9,1.2-1.9,1.2c-1.3,0-2.2-0.8-2.3-2.2h6.3c0.1-0.3,0.1-0.6,0.1-0.8
	c0-2.4-1.7-4.1-4-4.1c-2.4,0-4.1,1.7-4.1,4.3c0,2.6,1.8,4.3,4.1,4.3C259.8,152.7,261.1,151.6,261.6,150.2z M257.7,145.7
	c1.3,0,2.3,0.8,2.3,2.1h-4.6C255.7,146.4,256.6,145.7,257.7,145.7z"/>
<polygon class="st1" points="231.3,144.3 234.5,152.6 236.5,152.6 239.7,144.3 237.8,144.3 235.5,151.1 233.2,144.3 "/>
<path class="st1" d="M241.8,143.3c0.6,0,1.1-0.5,1.1-1.1c0-0.6-0.5-1.1-1.1-1.1c-0.6,0-1.1,0.5-1.1,1.1
	C240.7,142.8,241.2,143.3,241.8,143.3z M240.9,152.6h1.7v-8.3h-1.7V152.6z"/>
<path class="st1" d="M244.3,148.5c0,2.6,1.7,4.3,4.1,4.3c2,0,3.3-1.1,3.8-2.7h-1.8c-0.3,0.8-0.9,1.3-2,1.3c-1.4,0-2.3-1-2.3-2.8
	c0-1.8,0.9-2.8,2.3-2.8c1,0,1.7,0.5,2,1.3h1.8c-0.5-1.7-1.8-2.7-3.8-2.7C246,144.2,244.3,145.9,244.3,148.5z"/>
<rect x="62.3" y="35.4" class="st2" width="4.1" height="20.6"/>
<path class="st2" d="M84.1,56h4.1v-9.6c0-4.5-2.7-7-6.5-7c-2.1,0-3.9,0.9-4.9,2.3v-2h-4.1V56h4.1v-9c0-2.6,1.4-4,3.7-4
	c2.2,0,3.6,1.4,3.6,4V56z"/>
<path class="st2" d="M106.6,51.4c-0.1-6-9.2-4.1-9.2-7.1c0-0.9,0.8-1.6,2.3-1.6c1.6,0,2.6,0.9,2.8,2.1h3.9c-0.2-3.2-2.6-5.4-6.6-5.4
	c-4,0-6.5,2.2-6.5,4.9c0,6,9.2,4.1,9.2,7.1c0,0.9-0.9,1.7-2.5,1.7c-1.7,0-2.8-0.9-3-2.2h-4.2c0.2,3,3,5.4,7.1,5.4
	C104.2,56.3,106.6,54.2,106.6,51.4z"/>
<path class="st2" d="M111.6,50.9c0,3.7,2.1,5.1,5.2,5.1h2.6v-3.5h-1.9c-1.3,0-1.7-0.5-1.7-1.6v-7.9h3.7v-3.4h-3.7v-4h-4.2v4h-2v3.4
	h2V50.9z"/>
<path class="st2" d="M135.7,47.8c0,3.1-2.1,4.8-4.3,4.8c-2.2,0-4.3-1.8-4.3-4.9c0-3.1,2.1-4.8,4.3-4.8
	C133.7,43,135.7,44.7,135.7,47.8z M122.9,47.8c0,5.1,3.3,8.5,7.4,8.5c2.6,0,4.5-1.2,5.4-2.7V56h4.2V39.7h-4.2V42
	c-1-1.4-2.8-2.6-5.4-2.6C126.2,39.4,122.9,42.7,122.9,47.8z"/>
<rect x="144.6" y="34.2" class="st2" width="4.1" height="21.8"/>
<rect x="155" y="34.2" class="st2" width="4.1" height="21.8"/>
<path class="st2" d="M177.2,47.8c0,3.1-2.1,4.8-4.3,4.8c-2.2,0-4.3-1.8-4.3-4.9c0-3.1,2.1-4.8,4.3-4.8
	C175.1,43,177.2,44.7,177.2,47.8z M164.3,47.8c0,5.1,3.3,8.5,7.4,8.5c2.6,0,4.4-1.2,5.4-2.7V56h4.2V39.7h-4.2V42
	c-1-1.4-2.8-2.6-5.4-2.6C167.6,39.4,164.3,42.7,164.3,47.8z"/>
<path class="st2" d="M186.7,50.9c0,3.7,2.1,5.1,5.2,5.1h2.6v-3.5h-1.9c-1.3,0-1.7-0.5-1.7-1.6v-7.9h3.7v-3.4h-3.7v-4h-4.2v4h-1.9
	v3.4h1.9V50.9z"/>
<path class="st2" d="M201.1,37.7c1.5,0,2.5-1.1,2.5-2.4c0-1.4-1.1-2.4-2.5-2.4c-1.5,0-2.5,1.1-2.5,2.4
	C198.5,36.7,199.6,37.7,201.1,37.7z M199,56h4.1V39.7H199V56z"/>
<path class="st2" d="M212.6,47.8c0-3.3,2-4.8,4.2-4.8c2.2,0,4.2,1.6,4.2,4.8c0,3.2-2.1,4.8-4.3,4.8
	C214.4,52.7,212.6,51.1,212.6,47.8z M225.2,47.8c0-5.2-3.7-8.4-8.4-8.4c-4.7,0-8.4,3.3-8.4,8.4c0,5.1,3.6,8.4,8.3,8.4
	C221.4,56.3,225.2,53,225.2,47.8z"/>
<path class="st2" d="M240,56h4.1v-9.6c0-4.5-2.7-7-6.5-7c-2.1,0-3.9,0.9-4.9,2.3v-2h-4.1V56h4.1v-9c0-2.6,1.4-4,3.7-4
	c2.2,0,3.6,1.4,3.6,4V56z"/>
<rect x="167.4" y="204.6" class="st3" width="5.8" height="5.6"/>
<rect x="167.4" y="204.6" class="st4" width="5.8" height="5.6"/>
<path class="st4" d="M86,245.1c0,9.7,4.4,16.1,14.6,16.1c7.1,0,12.9-6.5,12.9-13.3c0-10.9,0-32.7,0-43.9c0-8.1,6.2-13.7,13.5-13.7
	c7.2,0,13.9,5,13.9,13"/>
<line class="st4" x1="86" y1="245.1" x2="86" y2="237.2"/>
<path class="st4" d="M170.4,204.3c0-9.1,7.2-14,13.7-13.9c6.5,0.2,13.6,5.1,13.6,12.5c0,4.6-0.1,15.6,0,21.8
	c0.1,8.2,6.4,13.4,14.3,13.4"/>
<path class="st1" d="M144.3,279.5c0-2.3-3.5-1.8-3.5-3c0-0.4,0.3-0.7,0.7-0.6c0.5,0,0.8,0.3,0.8,0.7h1.8c-0.1-1.3-1.1-2.1-2.6-2.1
	c-1.5,0-2.6,0.7-2.6,2.1c0,2.5,3.5,1.8,3.5,3.1c0,0.4-0.3,0.7-0.8,0.7c-0.5,0-0.8-0.3-0.9-0.8H139c0,1.4,1.2,2.2,2.7,2.2
	C143.4,281.7,144.3,280.7,144.3,279.5z"/>
<path class="st1" d="M149.5,278.8c0,0.9-0.6,1.4-1.2,1.4c-0.6,0-1.2-0.5-1.2-1.4s0.6-1.4,1.2-1.4C149,277.5,149.5,277.9,149.5,278.8
	z M147.1,276.8v-0.8h-1.7v8.2h1.7v-3.4c0.3,0.5,0.9,0.9,1.7,0.9c1.4,0,2.5-1.1,2.5-2.9s-1.1-2.9-2.5-2.9
	C148,276,147.4,276.4,147.1,276.8z"/>
<path class="st1" d="M157.3,279.8h-1.8c-0.1,0.3-0.4,0.5-0.9,0.5c-0.6,0-1-0.3-1.1-1.1h3.9c0-0.2,0-0.3,0-0.5c0-1.7-1.1-2.8-2.8-2.8
	c-1.7,0-2.8,1.1-2.8,2.9s1.2,2.9,2.8,2.9C156,281.7,157,280.9,157.3,279.8z M154.6,277.3c0.6,0,1,0.3,1,1h-2.1
	C153.6,277.7,154.1,277.3,154.6,277.3z"/>
<path class="st1" d="M163.5,279.8h-1.8c-0.1,0.3-0.4,0.5-0.9,0.5c-0.6,0-1-0.3-1.1-1.1h3.9c0-0.2,0-0.3,0-0.5c0-1.7-1.2-2.8-2.8-2.8
	c-1.7,0-2.8,1.1-2.8,2.9s1.2,2.9,2.8,2.9C162.2,281.7,163.2,280.9,163.5,279.8z M160.8,277.3c0.6,0,1.1,0.3,1.1,1h-2.1
	C159.8,277.7,160.2,277.3,160.8,277.3z"/>
<path class="st1" d="M168.3,278.8c0,0.9-0.6,1.4-1.2,1.4c-0.6,0-1.2-0.5-1.2-1.4s0.6-1.4,1.2-1.4C167.8,277.5,168.3,278,168.3,278.8
	z M164.2,278.8c0,1.8,1.1,2.9,2.5,2.9c0.8,0,1.4-0.4,1.7-0.9v0.8h1.7v-7.4h-1.7v2.6c-0.3-0.5-1-0.8-1.7-0.8
	C165.2,276,164.2,277.1,164.2,278.8z"/>
<polygon class="st1" points="173.9,279.5 172.6,276.1 170.7,276.1 172.9,281.4 171.6,284.3 173.5,284.3 177,276.1 175.1,276.1 "/>
<path class="st1" d="M216.5,274.6v7h1.7V279h0.4l1.5,2.7h1.9l-1.6-2.8c1.1-0.3,1.6-1.2,1.6-2c0-1.2-0.9-2.2-2.6-2.2H216.5z
	 M220.2,276.9c0,0.5-0.3,0.9-0.9,0.9h-1.1V276h1.1C219.9,276,220.2,276.4,220.2,276.9z"/>
<path class="st1" d="M224.4,278.8c0-0.9,0.5-1.4,1.2-1.4c0.6,0,1.2,0.4,1.2,1.4c0,0.9-0.6,1.4-1.2,1.4
	C224.9,280.2,224.4,279.8,224.4,278.8z M228.4,278.8c0-1.8-1.3-2.9-2.9-2.9c-1.6,0-2.9,1.1-2.9,2.9s1.2,2.9,2.9,2.9
	S228.4,280.6,228.4,278.8z"/>
<path class="st1" d="M234.9,276.1h-1.7v3c0,0.8-0.4,1.2-1.1,1.2c-0.6,0-1.1-0.4-1.1-1.2v-3h-1.7v3.3c0,1.5,0.9,2.4,2.2,2.4
	c0.8,0,1.3-0.3,1.7-0.8v0.8h1.7V276.1z"/>
<path class="st1" d="M236.4,279.7c0,1.5,0.8,1.9,2,1.9h0.9v-1.5h-0.6c-0.4,0-0.5-0.1-0.5-0.5v-2.2h1.1v-1.4h-1.1v-1.4h-1.7v1.4h-0.7
	v1.4h0.7V279.7z"/>
<path class="st1" d="M245.3,279.8h-1.8c-0.1,0.3-0.4,0.5-0.9,0.5c-0.5,0-1-0.3-1.1-1.1h3.9c0-0.2,0-0.3,0-0.5c0-1.7-1.2-2.8-2.8-2.8
	c-1.7,0-2.8,1.1-2.8,2.9s1.2,2.9,2.8,2.9C244,281.7,245,280.9,245.3,279.8z M242.6,277.3c0.6,0,1.1,0.3,1.1,1h-2.1
	C241.6,277.7,242,277.3,242.6,277.3z"/>
<path class="st1" d="M248,279c0-1,0.5-1.2,1.3-1.2h0.5V276c-0.8,0-1.4,0.4-1.8,1v-0.9h-1.7v5.6h1.7V279z"/>
<path class="st1" d="M81.3,276.9c0-1.3-0.9-2.3-2.6-2.3h-2.8v7h1.7v-2.5h1.1C80.5,279.1,81.3,278,81.3,276.9z M77.6,277.8V276h0.9
	c0.7,0,1,0.3,1,0.9c0,0.5-0.3,0.9-1,0.9H77.6z"/>
<path class="st1" d="M83.6,278.8c0-0.9,0.5-1.4,1.2-1.4c0.6,0,1.2,0.4,1.2,1.4c0,0.9-0.6,1.4-1.2,1.4
	C84.1,280.2,83.6,279.8,83.6,278.8z M87.6,278.8c0-1.8-1.3-2.9-2.9-2.9c-1.6,0-2.9,1.1-2.9,2.9s1.2,2.9,2.9,2.9
	S87.6,280.6,87.6,278.8z"/>
<polygon class="st1" points="89.5,281.6 91.3,281.6 92.3,278 93.1,281.6 95,281.6 96.5,276.1 94.9,276.1 94.1,280 93.2,276.1 
	91.4,276.1 90.4,280 89.7,276.1 87.9,276.1 "/>
<path class="st1" d="M102.3,279.8h-1.8c-0.1,0.3-0.4,0.5-0.9,0.5c-0.6,0-1-0.3-1.1-1.1h3.9c0-0.2,0-0.3,0-0.5c0-1.7-1.2-2.8-2.8-2.8
	c-1.7,0-2.8,1.1-2.8,2.9s1.2,2.9,2.8,2.9C101.1,281.7,102,280.9,102.3,279.8z M99.6,277.3c0.6,0,1,0.3,1,1h-2.1
	C98.7,277.7,99.1,277.3,99.6,277.3z"/>
<path class="st1" d="M105.1,279c0-1,0.5-1.2,1.3-1.2h0.5V276c-0.8,0-1.4,0.4-1.8,1v-0.9h-1.7v5.6h1.7V279z"/>
<path class="st4" d="M183.2,216.3c0-3.4-2.8-6.2-6.2-6.2h-41.3c-3.4,0-6.2,2.8-6.2,6.2v39.2c0,3.4,2.8,6.2,6.2,6.2h41.3
	c3.5,0,6.2-2.8,6.2-6.2V216.3z"/>
<path class="st4" d="M175.4,251.7c1.6,0,2.9,1.3,2.9,2.8c0,1.5-1.3,2.8-2.9,2.8c-1.6,0-2.9-1.3-2.9-2.8
	C172.5,252.9,173.8,251.7,175.4,251.7z"/>
<path class="st4" d="M175.4,214.4c1.6,0,2.9,1.3,2.9,2.8c0,1.6-1.3,2.8-2.9,2.8c-1.6,0-2.9-1.3-2.9-2.8
	C172.5,215.7,173.8,214.4,175.4,214.4z"/>
<path class="st4" d="M137.7,251.7c1.6,0,2.9,1.3,2.9,2.8c0,1.5-1.3,2.8-2.9,2.8s-2.9-1.3-2.9-2.8
	C134.8,252.9,136.1,251.7,137.7,251.7z"/>
<path class="st4" d="M137.7,214.4c1.6,0,2.9,1.3,2.9,2.8c0,1.6-1.3,2.8-2.9,2.8s-2.9-1.3-2.9-2.8
	C134.8,215.7,136.1,214.4,137.7,214.4z"/>
<path class="st2" d="M153.3,228.1h6.6c0.3,0,0.6,0.2,0.6,0.6v2.4c0,0.3-0.3,0.6-0.6,0.6h-6.6c-0.3,0-0.6-0.2-0.6-0.6v-2.4
	C152.7,228.4,153,228.1,153.3,228.1"/>
<rect x="152.9" y="233.5" class="st5" width="7.4" height="7.1"/>
<path class="st6" d="M90.9,237.3c1.7,0,3-1.3,3-3v-17c0-1.7-1.4-3-3-3H78.6c-1.7,0-3,1.4-3,3v17c0,1.7,1.4,3,3,3H90.9z"/>
<polygon class="st4" points="82.9,233.4 88.7,224.1 84,224.5 84.6,218.4 79.9,226.8 84.5,226.7 "/>
<path class="st6" d="M252,243c0.9,0,1.6-0.7,1.6-1.6v-6.6c0-0.9-0.7-1.6-1.6-1.6h-38.1c-0.9,0-1.6,0.7-1.6,1.6v6.6
	c0,0.9,0.7,1.6,1.6,1.6H252z"/>
<polygon class="st4" points="143.2,203.3 139.5,203.3 139.3,210 143.1,210 "/>
<path class="st7" d="M84.7,194.5c3.8,0,6.8,3,6.8,6.8c0,3.8-3,6.8-6.8,6.8c-3.8,0-6.8-3.1-6.8-6.8C77.9,197.6,80.9,194.5,84.7,194.5
	z"/>
<path class="st4" d="M84.7,194.5c3.8,0,6.8,3,6.8,6.8c0,3.8-3,6.8-6.8,6.8c-3.8,0-6.8-3.1-6.8-6.8C77.9,197.6,80.9,194.5,84.7,194.5
	z"/>
<path class="st7" d="M156.7,243.9c3.8,0,6.8,3.1,6.8,6.8c0,3.8-3.1,6.8-6.8,6.8c-3.8,0-6.8-3.1-6.8-6.8
	C149.9,247,152.9,243.9,156.7,243.9z"/>
<path class="st4" d="M156.7,243.9c3.8,0,6.8,3.1,6.8,6.8c0,3.8-3.1,6.8-6.8,6.8c-3.8,0-6.8-3.1-6.8-6.8
	C149.9,247,152.9,243.9,156.7,243.9z"/>
<path class="st7" d="M233.6,211c3.8,0,6.8,3.1,6.8,6.8c0,3.8-3.1,6.8-6.8,6.8c-3.8,0-6.8-3-6.8-6.8C226.8,214,229.8,211,233.6,211z"
	/>
<path class="st4" d="M233.6,211c3.8,0,6.8,3.1,6.8,6.8c0,3.8-3.1,6.8-6.8,6.8c-3.8,0-6.8-3-6.8-6.8C226.8,214,229.8,211,233.6,211z"
	/>
<polygon class="st8" points="84,205.1 85.8,205.1 85.8,197.8 83,197.8 83,199.4 84,199.4 "/>
<path class="st8" d="M154.1,249.3h1.7c0-0.4,0.2-0.8,0.8-0.8c0.5,0,0.8,0.3,0.8,0.8c0,0.7-0.6,0.8-1.1,0.8h-0.3v1.4h0.3
	c0.9,0,1.3,0.3,1.3,0.9c0,0.5-0.3,0.8-0.8,0.8c-0.6,0-0.9-0.4-1-0.9H154c0,1.7,1.1,2.4,2.7,2.4c1.5,0,2.4-0.9,2.4-2.1
	c0-1-0.5-1.5-1.2-1.8v0c0.5-0.2,1.1-0.7,1.1-1.6c0-1.1-0.8-2-2.4-2C155.1,247,154.2,247.8,154.1,249.3z"/>
<path class="st8" d="M231,221.5h5v-1.4h-2.7c1.2-0.9,2.6-2.2,2.6-3.8c0-1.2-0.7-2.2-2.4-2.2c-1.3,0-2.5,0.8-2.5,2.5h1.7
	c0-0.7,0.3-1.1,0.8-1.1c0.5,0,0.8,0.3,0.8,0.9c0,1.2-1.7,2.5-3.2,3.8V221.5z"/>
</svg>
