<?xml version="1.0" encoding="utf-8"?>
<!-- Generator: Adobe Illustrator 25.2.0, SVG Export Plug-In . SVG Version: 6.00 Build 0)  -->
<svg version="1.1" id="Layer_1" xmlns:serif="http://www.serif.com/"
	 xmlns="http://www.w3.org/2000/svg" xmlns:xlink="http://www.w3.org/1999/xlink" x="0px" y="0px" viewBox="0 0 567.5 185.2"
	 style="enable-background:new 0 0 567.5 185.2;" xml:space="preserve">
<style type="text/css">
	.st0{fill-rule:evenodd;clip-rule:evenodd;fill:#18CAD6;}
	.st1{fill-rule:evenodd;clip-rule:evenodd;fill:#FFFFFF;}
</style>
<path class="st0" d="M96.2,66c-19.3,8.7-31.3,27-32.8,46.8c-0.2,2.2-2,4.1-4.2,4.1H45.9c-2.3,0-4.1-1.8-4-4.1
	c1.6-27.9,18.2-54,45.5-66.3c24-10.8,50.6-8.4,71.6,4.2c1.9,1.2,2.4,3.7,1.2,5.6l-7.4,11c-1.3,1.9-3.8,2.4-5.7,1.2
	C132,59.8,113.2,58.3,96.2,66z"/>
<path class="st0" d="M77.8,29.9c-34,15.3-54.7,48.1-56.3,83c-0.1,2.3-1.9,4.1-4.2,4.1H4c-2.3,0-4.1-1.8-4-4.1
	C1.6,69.8,27,29.3,69,10.4c37-16.7,78.1-12.5,110.2,7.4c1.9,1.2,2.4,3.7,1.1,5.6l-7.4,11c-1.3,1.9-3.8,2.4-5.7,1.2
	C141,19.6,107.7,16.4,77.8,29.9z"/>
<path class="st1" d="M138.7,90.5c0.5-0.8,0.1-1.8-0.8-2c-5-1.3-9.9-2-14.5-2c-5,0-9.5,0.7-13.5,2.2s-7.4,3.6-10.2,6.3
	c-2.7,2.6-4.9,5.9-6.5,9.7c-1.5,3.7-2.2,7.9-2.2,12.5s0.7,8.5,2.1,11.5c1.5,3,3.4,5.5,5.7,7.4c2.4,2,5.1,3.6,8.1,4.8
	c3.1,1.2,6.2,2.2,9.3,3.2c2.6,0.9,4.9,1.7,6.7,2.5c1.9,0.7,3.4,1.6,4.6,2.5c1.2,0.8,2,1.8,2.5,2.9c0.5,1,0.7,2.2,0.7,3.6
	c0,2.3-1,4.4-3,6.2c-1.9,1.8-4.8,2.7-8.8,2.7c-3.5,0-7-0.8-10.5-2.4c-3-1.3-6-3.2-9.1-5.7c-0.9-0.7-2.2-0.5-2.8,0.5l-8.6,16.2
	c-0.4,0.8-0.2,1.8,0.6,2.3c9.7,6.4,20.2,9.7,31.6,9.7c5.7,0,10.8-0.8,15.3-2.4c4.5-1.5,8.4-3.6,11.4-6.3c3.1-2.8,5.5-6.2,7.1-10
	c1.7-3.9,2.5-8.2,2.5-13c0-7.1-1.9-12.9-5.6-17.2c-3.6-4.5-9.4-8-17.4-10.7c-2-0.7-4-1.3-6.1-1.9c-2-0.6-3.8-1.2-5.5-2
	c-1.6-0.8-2.9-1.8-3.8-2.9c-1-1.1-1.5-2.4-1.5-4.1c0-2.4,1-4.3,3-5.8s4.5-2.2,7.7-2.2c0.1,0,0.2,0,0.3,0c0.7,0,1.3-0.3,1.7-0.9
	L138.7,90.5z M203.9,132h-6.3c-1,0-1.8-0.8-1.8-1.8v-19.8c0-1,0.8-1.8,1.8-1.8h6.3c8.9,0,13.4,3.9,13.4,11.7S212.9,132,203.9,132z
	 M171.6,180.9c0,1,0.8,1.8,1.8,1.8h20.7c1,0,1.8-0.8,1.8-1.8v-27.4c0-1,0.8-1.8,1.8-1.8h12.6c10.5,0,18.5-2.7,24.1-8.2
	s8.4-13.2,8.4-23.1s-2.8-17.6-8.4-23.1c-5.5-5.5-13.6-8.2-24.1-8.2h-36.9c-1,0-1.8,0.8-1.8,1.8L171.6,180.9L171.6,180.9z
	 M308.9,107.9c0,1-0.8,1.8-1.8,1.8h-25.3c-1,0-1.8,0.8-1.8,1.8v12.1c0,1,0.8,1.8,1.8,1.8h23.7c1,0,1.8,0.8,1.8,1.8v17
	c0,1-0.8,1.8-1.8,1.8h-23.7c-1,0-1.8,0.8-1.8,1.8v12.6c0,1,0.8,1.8,1.8,1.8h25.3c1,0,1.8,0.8,1.8,1.8v17c0,1-0.8,1.8-1.8,1.8h-49.7
	c-1,0-1.8-0.8-1.8-1.8V91c0-1,0.8-1.8,1.8-1.8h49.7c1,0,1.8,0.8,1.8,1.8V107.9z M350.7,111.5c0-1,0.8-1.8,1.8-1.8h25.3
	c1,0,1.8-0.8,1.8-1.8v-17c0-1-0.8-1.8-1.8-1.8h-49.7c-1,0-1.8,0.8-1.8,1.8v90c0,1,0.8,1.8,1.8,1.8h49.7c1,0,1.8-0.8,1.8-1.8v-17
	c0-1-0.8-1.8-1.8-1.8h-25.3c-1,0-1.8-0.8-1.8-1.8v-12.6c0-1,0.8-1.8,1.8-1.8h23.7c1,0,1.8-0.8,1.8-1.8v-17c0-1-0.8-1.8-1.8-1.8
	h-23.7c-1,0-1.8-0.8-1.8-1.8V111.5z M421.5,160.3c0,1,0.8,1.8,1.8,1.8h3.8c4.2,0,8-0.7,11.3-2s6.1-3.1,8.3-5.5
	c2.3-2.3,4.1-5,5.2-8.2c1.2-3.2,1.9-6.7,1.9-10.5c0-3.7-0.6-7.2-1.9-10.4c-1.2-3.2-3-6-5.3-8.3c-2.2-2.3-5-4.1-8.3-5.5
	c-3.3-1.3-7-2-11.2-2h-3.8c-1,0-1.8,0.8-1.8,1.8V160.3z M397.1,90.9c0-1,0.8-1.8,1.8-1.8h34.2c6.4,0,12.3,1.3,17.9,3.8
	c5.6,2.6,10.5,6,14.6,10.3c4.2,4.2,7.5,9.2,9.9,14.9c2.4,5.6,3.6,11.5,3.6,17.7c0,6.1-1.2,12-3.6,17.7c-2.3,5.6-5.6,10.6-9.8,14.9
	c-4.1,4.3-9,7.7-14.6,10.3c-5.5,2.6-11.5,3.8-18,3.8h-34.2c-1,0-1.8-0.8-1.8-1.8V90.9z M479.9,89.1c-1.4,0-2.3,1.6-1.5,2.8
	l31.8,45.4c0.2,0.3,0.3,0.7,0.3,1v42.6c0,1,0.8,1.8,1.8,1.8H533c1,0,1.8-0.8,1.8-1.8v-42.6c0-0.4,0.1-0.7,0.3-1L567,91.9
	c0.8-1.2,0-2.8-1.5-2.8h-24.6c-0.6,0-1.1,0.3-1.5,0.8l-15.2,22.6c-0.7,1-2.2,1-3,0L506,89.9c-0.3-0.5-0.9-0.8-1.5-0.8H479.9z"/>
</svg>
