<?xml version="1.0" encoding="utf-8"?>
<!-- Generator: Adobe Illustrator 27.9.0, SVG Export Plug-In . SVG Version: 6.00 Build 0)  -->
<svg version="1.1" id="Layer_1" xmlns="http://www.w3.org/2000/svg" xmlns:xlink="http://www.w3.org/1999/xlink" x="0px" y="0px"
	 viewBox="0 0 1500 768" style="enable-background:new 0 0 1500 768;" xml:space="preserve">
<style type="text/css">
	.st0{fill:#FFFFFF;}
	.st1{fill:#022C44;}
	.st2{fill:none;}
	.st3{fill-rule:evenodd;clip-rule:evenodd;fill:#022C44;}
	.st4{fill:#18CAD6;}
	.st5{fill-rule:evenodd;clip-rule:evenodd;fill:#FFFFFF;}
	.st6{fill:none;stroke:#FFFFFF;stroke-miterlimit:10;}
	.st7{fill:none;stroke:#FFFFFF;stroke-miterlimit:10;stroke-dasharray:12.0568,12.0568;}
	.st8{fill:none;stroke:#FFFFFF;stroke-miterlimit:10;stroke-dasharray:12.1377,12.1377;}
</style>
<g transform="matrix(1.00282e-16,1.63773,-1.63773,1.00282e-16,533.957,139.707)">
	<g transform="matrix(1.98205e-16,-3.23694,3.36582,2.06097e-16,91.3655,861.487)">
	</g>
</g>
<path class="st0" d="M957,154.4v0.6h-26.4v-0.6H925v0.6H795.4v-0.6h-5.5h-15.3H769v0.6h-17.7c-20.7,0-37.4,16.8-37.4,37.4v217.7
	c0,20.7,16.8,37.4,37.4,37.4h229.1c20.7,0,37.4-16.8,37.4-37.4V192.4c0-20.7-16.8-37.4-37.4-37.4h-17.9v-0.6L957,154.4L957,154.4z"
	/>
<rect x="840.6" y="252.5" class="st1" width="55.2" height="79.9"/>
<rect x="930.1" y="154.4" class="st2" width="27.5" height="0.6"/>
<polygon class="st2" points="795.5,155 925.1,155 925.1,154.4 795.5,154.4 "/>
<path class="st0" d="M1051,394.8c-0.3-4-0.6-6.3-0.8-6.8c-0.7-1.8-2.1-2-2.9-2.1h-0.1c-0.7,0-2.3,0.1-3.1,2.1
	c-0.2,0.4-0.5,2.8-0.8,6.8c-2.3,33.8-8.2,202.6-8.2,204.6v13.2c-2.4-1.8-5.4-2.9-8.7-2.9H765.1c-8,0-14.5,6.5-14.5,14.5V644
	c-0.5,0-0.9,0-1.4,0v6.9c0.5,0,0.9,0,1.4,0v18.6c0,8,6.5,14.5,14.5,14.5h261.3c8,0,14.5-6.5,14.5-14.5v-15.7c0.1,0,0.2,0,0.3,0h11.6
	c3,0,6.1-3,6.1-7.4v-47C1058.9,597.4,1053.2,428.5,1051,394.8z"/>
<path class="st3" d="M972.1,385.9c-10.5,0-19.1,8.3-19.1,18.4s8.5,18.4,19.1,18.4s19.1-8.3,19.1-18.4S982.7,385.9,972.1,385.9z
	 M972.1,391.4c7.4,0,13.5,5.7,13.5,12.9c0,7.1-6.1,12.9-13.5,12.9s-13.5-5.7-13.5-12.9C958.6,397.2,964.7,391.4,972.1,391.4z"/>
<path class="st3" d="M972.1,179c-10.5,0-19.1,8.3-19.1,18.4s8.5,18.4,19.1,18.4s19.1-8.3,19.1-18.4S982.7,179,972.1,179z
	 M972.1,184.5c7.4,0,13.5,5.7,13.5,12.9c0,7.1-6.1,12.9-13.5,12.9s-13.5-5.7-13.5-12.9C958.6,190.3,964.7,184.5,972.1,184.5z"/>
<path class="st3" d="M762.7,385.9c-10.5,0-19.1,8.3-19.1,18.4s8.5,18.4,19.1,18.4s19.1-8.3,19.1-18.4
	C781.7,394.2,773.2,385.9,762.7,385.9z M762.7,391.4c7.4,0,13.5,5.7,13.5,12.9c0,7.1-6.1,12.9-13.5,12.9s-13.5-5.7-13.5-12.9
	C749.2,397.2,755.2,391.4,762.7,391.4z"/>
<path class="st3" d="M762.7,179c-10.5,0-19.1,8.3-19.1,18.4s8.5,18.4,19.1,18.4s19.1-8.3,19.1-18.4C781.7,187.3,773.2,179,762.7,179
	z M762.7,184.5c7.4,0,13.5,5.7,13.5,12.9c0,7.1-6.1,12.9-13.5,12.9s-13.5-5.7-13.5-12.9C749.2,190.3,755.2,184.5,762.7,184.5z"/>
<g transform="matrix(6.27219,-3.59427e-24,2.08639e-23,-6.30692,5.31116,783.314)">
	<path class="st4" d="M134.6,83.3h5.8c0.3,0,0.5-0.2,0.5-0.5v-2.1c0-0.3-0.2-0.5-0.5-0.5h-5.8c-0.3,0-0.5,0.2-0.5,0.5v2.1
		C134.1,83,134.4,83.3,134.6,83.3"/>
</g>
<g transform="matrix(1.9236,0,0,2.00456,-16608.2,-7567.83)">
	<rect x="9073.5" y="3919.5" class="st5" width="23.1" height="18.3"/>
</g>
<path class="st0" d="M483.5,353.7c0-39-31.6-70.6-70.6-70.6c-9.8,0-19.1,2-27.5,5.6c0.3-1.8,0.5-3.7,0.5-5.6
	c0-19.6-15.9-35.5-35.5-35.5c-7.6,0-14.7,2.4-20.4,6.5c-19.3-38.7-59.2-65.3-105.4-65.3c-65,0-117.8,52.7-117.8,117.8
	c0,62.9,49.4,114.3,111.5,117.6v0.2h204.1v-0.7C456.9,419,483.5,389.5,483.5,353.7z"/>
<g>
	<path class="st0" d="M716.2,677.9v-3.5l9.4-6.1c0.6-0.4,1.3-0.8,1.9-1.1c0.6-0.4,1.1-0.6,1.4-0.8v-0.1c-1.2,0.1-2.4,0.2-3.7,0.2
		c-1.3,0-2.4,0-3.7,0h-5.4v-3.6h17.8v3.5l-8.7,5.7c-0.4,0.2-0.8,0.5-1.2,0.7c-0.4,0.2-0.8,0.5-1.2,0.7s-0.7,0.4-1,0.6
		c-0.3,0.2-0.6,0.3-0.8,0.4v0.1c1.3-0.1,2.6-0.1,3.8-0.2c1.2,0,2.4,0,3.7,0h5.4v3.5H716.2z"/>
	<path class="st0" d="M728.3,647.1v9h0.1c1.1,0,1.9-0.4,2.4-1.1c0.5-0.8,0.8-1.7,0.8-2.9c0-0.8-0.1-1.4-0.2-2
		c-0.2-0.6-0.3-1.1-0.5-1.6l2.6-0.7c0.2,0.5,0.5,1.2,0.6,1.9c0.2,0.8,0.3,1.7,0.3,2.7s-0.1,2-0.4,2.9s-0.7,1.7-1.3,2.3
		c-0.6,0.7-1.3,1.2-2.2,1.6c-0.9,0.4-1.9,0.6-3.1,0.6c-1.1,0-2.1-0.2-2.9-0.5c-0.9-0.3-1.6-0.8-2.3-1.4c-0.6-0.6-1.1-1.3-1.5-2.1
		c-0.3-0.8-0.5-1.8-0.5-2.8c0-1.8,0.6-3.3,1.7-4.4c1.1-1.1,2.7-1.6,4.7-1.6L728.3,647.1L728.3,647.1z M725.7,651c-0.4,0-0.7,0-1,0.1
		s-0.6,0.2-0.9,0.4s-0.5,0.4-0.6,0.7c-0.2,0.3-0.2,0.6-0.2,1c0,0.8,0.3,1.4,0.8,1.9s1.2,0.8,2.1,0.9L725.7,651z"/>
	<path class="st0" d="M723.3,636.4v3.6h6.2c0.6,0,1.1-0.1,1.3-0.4c0.2-0.3,0.4-0.7,0.4-1.2c0-0.4,0-0.8-0.1-1.2
		c-0.1-0.4-0.2-0.7-0.3-1l2.6-0.6c0.2,0.3,0.3,0.8,0.5,1.4c0.2,0.6,0.2,1.3,0.2,2c0,1.6-0.3,2.8-1,3.5s-1.6,1-2.9,1h-6.9v2.1h-2.7
		v-2.1h-4.2v-3.7h4.2v-3.6h2.7V636.4z"/>
	<path class="st0" d="M720.6,634.8v-3.9l7.2-1.7l3.5-0.5v-0.1l-3.5-0.6l-7.2-1.7v-4l7.2-1.7l3.5-0.6v-0.1l-3.5-0.6l-7.2-1.7v-3.8
		l13.5,3.7v4.4l-7.3,1.8l-3.3,0.6l3.3,0.6l7.3,1.8v4.4L720.6,634.8z"/>
	<path class="st0" d="M727.2,598.9c1.1,0,2.1,0.2,3,0.5c0.9,0.4,1.6,0.9,2.2,1.5c0.6,0.6,1.1,1.4,1.4,2.2c0.3,0.9,0.5,1.8,0.5,2.7
		c0,1-0.2,1.9-0.5,2.7s-0.7,1.6-1.3,2.2c-0.6,0.6-1.3,1.1-2.2,1.4c-0.9,0.4-1.8,0.5-2.9,0.5c-1.2,0-2.2-0.2-3.1-0.5
		c-0.9-0.4-1.7-0.9-2.3-1.5c-0.6-0.6-1.1-1.4-1.4-2.2c-0.3-0.9-0.5-1.8-0.5-2.7c0-1,0.2-1.9,0.5-2.7s0.7-1.6,1.3-2.2
		c0.6-0.6,1.3-1.1,2.2-1.4C725.1,599.1,726.1,598.9,727.2,598.9z M727.4,602.8c-0.8,0-1.4,0.1-2,0.3c-0.5,0.2-1,0.4-1.3,0.7
		s-0.6,0.6-0.7,1c-0.2,0.4-0.2,0.8-0.2,1.2s0.1,0.8,0.2,1.1c0.1,0.4,0.4,0.7,0.7,1c0.3,0.3,0.8,0.5,1.3,0.7s1.2,0.3,2.1,0.3
		c0.7,0,1.4-0.1,1.9-0.3s1-0.4,1.3-0.7s0.6-0.6,0.8-1s0.3-0.8,0.3-1.1s-0.1-0.8-0.2-1.1c-0.1-0.4-0.4-0.7-0.7-1s-0.8-0.5-1.3-0.7
		C728.8,602.8,728.2,602.8,727.4,602.8z"/>
	<path class="st0" d="M734.1,596.2h-13.5v-2.9l2.4-0.4c-0.7-0.3-1.3-0.8-1.9-1.5c-0.5-0.7-0.8-1.6-0.8-2.6c0-0.4,0-0.8,0.1-1.2
		c0.1-0.3,0.2-0.6,0.3-0.9l3,0.6c-0.1,0.2-0.2,0.5-0.3,0.8s-0.1,0.7-0.1,1.1c0,0.9,0.3,1.7,0.9,2.3c0.6,0.6,1.6,0.9,3,0.9h6.8v3.8
		H734.1z"/>
	<path class="st0" d="M729.6,581.4h4.5v3.7h-20.2v-3.7h12l-5.3-4.5v-4.6l5.7,5.2l7.8-5.5v4.4l-5.6,3.8L729.6,581.4z"/>
	<path class="st0" d="M716.2,568.8v-4.9l8.1-2.5c0.4-0.1,0.7-0.2,1.2-0.4c0.4-0.1,0.8-0.2,1.2-0.4c0.4-0.1,0.8-0.2,1.2-0.3
		c0.4-0.1,0.8-0.2,1.1-0.2V560c-0.3-0.1-0.7-0.1-1.1-0.2c-0.4-0.1-0.8-0.2-1.3-0.3c-0.4-0.1-0.9-0.2-1.3-0.3
		c-0.4-0.1-0.8-0.2-1.1-0.3l-8.1-2.5v-4.9l17.8-1.3v3.7c-2,0.1-3.9,0.2-5.9,0.3s-3.9,0.2-5.9,0.2h-2.3v0.1c1,0.2,2.1,0.5,3.3,0.8
		c1.1,0.3,2.1,0.6,3,0.8l7.9,2.5v3l-8,2.6c-1,0.3-2.1,0.6-3.2,0.9c-1.1,0.3-2.1,0.5-3,0.7v0.1c0.7,0,1.4,0,2.1,0s1.5,0,2.2,0.1
		c0.7,0,1.5,0.1,2.2,0.1s1.4,0.1,1.9,0.1l5.7,0.3v3.6L716.2,568.8z"/>
	<path class="st0" d="M721.8,546.4c-0.5-0.8-0.8-1.7-1.1-2.6c-0.3-0.9-0.4-1.9-0.4-2.9c0-0.8,0.1-1.6,0.3-2.2
		c0.2-0.7,0.5-1.2,0.9-1.7c0.4-0.5,0.9-0.9,1.6-1.1c0.6-0.3,1.4-0.4,2.3-0.4h8.8v2.9l-1.4,0.3v0.2c0.5,0.4,0.9,1,1.2,1.7
		s0.5,1.4,0.5,2.3c0,0.7-0.1,1.4-0.3,2s-0.5,1-0.9,1.4c-0.4,0.4-0.8,0.7-1.3,0.9s-1.1,0.3-1.6,0.3c-0.8,0-1.4-0.2-2-0.5
		c-0.6-0.3-1-0.8-1.4-1.4c-0.4-0.6-0.6-1.3-0.8-2.1c-0.2-0.8-0.3-1.6-0.3-2.5v-1.7h-0.8c-0.6,0-1.1,0.2-1.4,0.6
		c-0.3,0.4-0.4,0.9-0.4,1.6c0,0.5,0.1,1.1,0.3,1.7c0.2,0.6,0.4,1.2,0.8,1.9L721.8,546.4z M728.2,539.3v1.2c0,1.2,0.2,2,0.6,2.4
		c0.3,0.5,0.8,0.7,1.3,0.7c0.6,0,1.1-0.2,1.3-0.6c0.2-0.4,0.4-0.8,0.4-1.3s-0.1-1-0.4-1.4s-0.6-0.8-1-1L728.2,539.3L728.2,539.3z"/>
	<path class="st0" d="M734.1,528.5v3.8h-13.5v-2.9l1.7-0.5c-0.6-0.6-1.1-1.3-1.5-2.1c-0.3-0.7-0.5-1.6-0.5-2.5
		c0-1.5,0.4-2.6,1.2-3.4c0.8-0.8,2-1.2,3.5-1.2h9v3.8h-8.6c-0.7,0-1.2,0.2-1.7,0.5c-0.4,0.3-0.6,0.8-0.6,1.5c0,0.5,0.1,1,0.4,1.5
		s0.6,1,1.1,1.5L734.1,528.5L734.1,528.5z"/>
	<path class="st0" d="M721.8,516.2c-0.5-0.8-0.8-1.7-1.1-2.6c-0.3-0.9-0.4-1.9-0.4-2.9c0-0.8,0.1-1.6,0.3-2.2
		c0.2-0.7,0.5-1.2,0.9-1.7c0.4-0.5,0.9-0.9,1.6-1.1c0.6-0.3,1.4-0.4,2.3-0.4h8.8v2.9l-1.4,0.3v0.1c0.5,0.4,0.9,1,1.2,1.7
		c0.3,0.7,0.5,1.4,0.5,2.3c0,0.7-0.1,1.4-0.3,2s-0.5,1-0.9,1.4c-0.4,0.4-0.8,0.7-1.3,0.9s-1.1,0.3-1.6,0.3c-0.8,0-1.4-0.2-2-0.5
		c-0.6-0.3-1-0.8-1.4-1.4c-0.4-0.6-0.6-1.3-0.8-2.1c-0.2-0.8-0.3-1.6-0.3-2.5V509h-0.8c-0.6,0-1.1,0.2-1.4,0.6s-0.4,0.9-0.4,1.6
		c0,0.5,0.1,1.1,0.3,1.7c0.2,0.6,0.4,1.2,0.8,1.9L721.8,516.2z M728.2,509.1v1.2c0,1.2,0.2,2,0.6,2.4c0.3,0.5,0.8,0.7,1.3,0.7
		c0.6,0,1.1-0.2,1.3-0.6c0.2-0.4,0.4-0.8,0.4-1.3s-0.1-1-0.4-1.4s-0.6-0.8-1-1L728.2,509.1L728.2,509.1z"/>
	<path class="st0" d="M725.2,502.2c-0.7,0-1.4-0.1-2-0.4c-0.6-0.3-1.1-0.7-1.5-1.2c-0.4-0.5-0.7-1.1-1-1.8c-0.2-0.7-0.3-1.5-0.3-2.3
		c0-0.3,0-0.7,0.1-1c0-0.4,0.1-0.7,0.2-1v-5.8h2.4v1.2l-0.3,1.8c0.3-0.2,0.7-0.4,1.1-0.6c0.5-0.2,0.9-0.2,1.4-0.2
		c1.4,0,2.6,0.5,3.5,1.5c0.9,1,1.3,2.4,1.3,4.2c0,0.5,0,0.9-0.1,1.2c0.2,0.5,0.5,0.7,0.9,0.7c0.3,0,0.5-0.1,0.7-0.3s0.2-0.6,0.2-1.1
		v-3c0-1.5,0.3-2.7,1-3.6s1.7-1.3,3.1-1.3c0.7,0,1.4,0.2,2,0.5c0.6,0.4,1.1,0.8,1.6,1.5c0.4,0.6,0.8,1.4,1,2.3s0.4,1.9,0.4,3
		c0,2.1-0.4,3.7-1.1,4.9s-1.8,1.8-3.1,1.8c-0.6,0-1.2-0.2-1.6-0.6c-0.5-0.4-0.8-1-1.1-1.7c-0.2,0.3-0.5,0.5-0.8,0.8
		s-0.8,0.4-1.3,0.4c-0.6,0-1.2-0.2-1.6-0.6c-0.5-0.4-0.8-0.9-1.1-1.4c-0.2,0.3-0.3,0.6-0.6,0.8c-0.2,0.3-0.5,0.5-0.8,0.7
		s-0.7,0.4-1.1,0.6C726.1,502.2,725.7,502.2,725.2,502.2z M734.5,498.6c0.2,0.3,0.3,0.5,0.6,0.7c0.2,0.2,0.6,0.3,0.9,0.3
		c0.5,0,1-0.2,1.4-0.7c0.4-0.5,0.6-1.4,0.6-2.6s-0.2-2.1-0.6-2.7c-0.4-0.6-0.9-0.9-1.4-0.9s-0.9,0.2-1.1,0.5
		c-0.2,0.4-0.3,0.9-0.3,1.7v3.7H734.5z M725.1,494.3c-0.7,0-1.3,0.2-1.7,0.6s-0.6,0.9-0.6,1.5s0.2,1.1,0.6,1.5
		c0.4,0.4,0.9,0.6,1.6,0.6c0.8,0,1.3-0.2,1.7-0.6c0.4-0.4,0.6-0.9,0.6-1.5s-0.2-1.1-0.6-1.5C726.4,494.5,725.9,494.3,725.1,494.3z"
		/>
	<path class="st0" d="M728.3,474.3v9h0.1c1.1,0,1.9-0.4,2.4-1.1c0.5-0.8,0.8-1.7,0.8-2.9c0-0.8-0.1-1.4-0.2-2
		c-0.2-0.6-0.3-1.1-0.5-1.6l2.6-0.7c0.2,0.5,0.5,1.2,0.6,1.9c0.2,0.8,0.3,1.7,0.3,2.7s-0.1,2-0.4,2.9s-0.7,1.7-1.3,2.3
		c-0.6,0.7-1.3,1.2-2.2,1.6c-0.9,0.4-1.9,0.6-3.1,0.6c-1.1,0-2.1-0.2-2.9-0.5c-0.9-0.3-1.6-0.8-2.3-1.4c-0.6-0.6-1.1-1.3-1.5-2.1
		c-0.3-0.8-0.5-1.8-0.5-2.8c0-1.8,0.6-3.3,1.7-4.4c1.1-1.1,2.7-1.6,4.7-1.6L728.3,474.3L728.3,474.3z M725.7,478.1
		c-0.4,0-0.7,0-1,0.1s-0.6,0.2-0.9,0.4c-0.3,0.2-0.5,0.4-0.6,0.7c-0.2,0.3-0.2,0.6-0.2,1c0,0.8,0.3,1.4,0.8,1.9s1.2,0.8,2.1,0.9
		L725.7,478.1z"/>
	<path class="st0" d="M734.1,471.6h-13.5v-2.9l2.4-0.4c-0.7-0.3-1.3-0.8-1.9-1.5c-0.5-0.7-0.8-1.6-0.8-2.6c0-0.4,0-0.8,0.1-1.2
		c0.1-0.3,0.2-0.6,0.3-0.9l3,0.6c-0.1,0.2-0.2,0.5-0.3,0.8s-0.1,0.7-0.1,1.1c0,0.9,0.3,1.7,0.9,2.3c0.6,0.6,1.6,0.9,3,0.9h6.8v3.8
		H734.1z"/>
</g>
<g>
	<path class="st0" d="M569.1,310.9h4.9l2.5,8.1c0.1,0.4,0.2,0.7,0.4,1.2c0.1,0.4,0.2,0.8,0.4,1.2c0.1,0.4,0.2,0.8,0.3,1.2
		c0.1,0.4,0.2,0.8,0.2,1.1h0.1c0.1-0.3,0.1-0.7,0.2-1.1c0.1-0.4,0.2-0.8,0.3-1.3c0.1-0.4,0.2-0.9,0.3-1.3s0.2-0.8,0.3-1.1l2.5-8.1
		h4.9l1.3,17.8H584c-0.1-2-0.2-3.9-0.3-5.9s-0.2-3.9-0.2-5.9v-2.3h-0.1c-0.2,1-0.5,2.1-0.8,3.3c-0.3,1.1-0.6,2.1-0.8,3l-2.5,7.9h-3
		l-2.6-8c-0.3-1-0.6-2.1-0.9-3.2c-0.3-1.1-0.5-2.1-0.7-3H572c0,0.7,0,1.4,0,2.1s0,1.5-0.1,2.2c0,0.7-0.1,1.5-0.1,2.2
		s-0.1,1.4-0.1,1.9l-0.3,5.7h-3.6L569.1,310.9z"/>
	<path class="st0" d="M599.6,310.6c1.3,0,2.4,0.2,3.5,0.6s2,1,2.8,1.8s1.4,1.8,1.8,2.9c0.4,1.2,0.7,2.5,0.7,3.9
		c0,2.1-0.5,3.9-1.4,5.4s-2.2,2.7-3.9,3.6l-3.3,1.8c0.4,0,0.8,0.1,1.2,0.2s0.8,0.3,1.2,0.4s0.9,0.3,1.3,0.4c0.5,0.1,1,0.2,1.5,0.2
		s0.9-0.1,1.4-0.2c0.5-0.2,0.8-0.3,1.1-0.6l1.4,2.6c-0.3,0.3-0.8,0.5-1.4,0.8c-0.6,0.3-1.4,0.4-2.3,0.4c-0.8,0-1.5-0.1-2.2-0.3
		s-1.4-0.4-2-0.6s-1.3-0.4-1.9-0.6c-0.6-0.2-1.2-0.3-1.8-0.3s-1.1,0.1-1.5,0.2c-0.5,0.1-0.9,0.3-1.4,0.6l-1.3-2.4l4.6-2.6
		c-2.1-0.4-3.8-1.3-5-2.9c-1.2-1.5-1.9-3.6-1.9-6.1c0-1.4,0.2-2.7,0.7-3.9c0.4-1.1,1.1-2.1,1.9-2.9c0.8-0.8,1.7-1.4,2.8-1.8
		C597.1,310.8,598.3,310.6,599.6,310.6z M594.8,319.8c0,1.1,0.1,2,0.4,2.8c0.2,0.8,0.6,1.5,1,2s0.9,0.9,1.5,1.2
		c0.6,0.3,1.2,0.4,1.8,0.4c0.7,0,1.3-0.1,1.9-0.4s1.1-0.7,1.5-1.2s0.8-1.2,1-2s0.4-1.7,0.4-2.7c0-1.1-0.1-2-0.4-2.8
		c-0.3-0.8-0.6-1.4-1-2c-0.4-0.5-0.9-0.9-1.5-1.1s-1.2-0.4-1.8-0.4c-0.7,0-1.3,0.1-1.8,0.4c-0.6,0.3-1.1,0.6-1.5,1.2
		c-0.4,0.5-0.8,1.2-1,2C594.9,317.9,594.8,318.8,594.8,319.8z"/>
	<path class="st0" d="M623.2,310.9v3.1h-5v14.8h-3.9V314h-4.9v-3.1H623.2z"/>
	<path class="st0" d="M638,310.9v3.1h-5v14.8h-3.9V314h-4.9v-3.1H638z"/>
</g>
<g>
	<path class="st0" d="M1033.6,321.3h4l6.6,17.8h-4.1l-1.4-4.1h-6.3l-1.4,4.1h-4L1033.6,321.3z M1033.3,332.1h4.5l-0.8-2.4
		c-0.3-0.7-0.5-1.5-0.7-2.2c-0.2-0.7-0.4-1.5-0.7-2.3l0,0c-0.2,0.7-0.4,1.4-0.7,2.2c-0.2,0.7-0.5,1.5-0.8,2.3L1033.3,332.1z"/>
	<path class="st0" d="M1054.8,318.9h3.8v20.2h-2.7l-0.4-1.5h-0.1c-0.3,0.5-0.8,0.9-1.5,1.2c-0.6,0.4-1.5,0.5-2.5,0.5
		c-0.8,0-1.6-0.2-2.4-0.5c-0.7-0.3-1.4-0.8-1.9-1.4c-0.5-0.6-1-1.3-1.3-2.2c-0.3-0.9-0.5-1.9-0.5-3s0.1-2,0.4-2.9s0.7-1.6,1.2-2.2
		c0.5-0.6,1.2-1.1,2-1.4c0.8-0.3,1.7-0.5,2.7-0.5c0.6,0,1.3,0.1,1.8,0.3c0.6,0.2,1,0.4,1.4,0.7V318.9z M1054.8,329.1
		c-0.2-0.3-0.6-0.6-1-0.8s-0.8-0.3-1.3-0.3s-0.9,0.1-1.3,0.2c-0.4,0.1-0.8,0.4-1.1,0.7c-0.3,0.3-0.6,0.8-0.8,1.3
		c-0.2,0.5-0.3,1.2-0.3,2s0.1,1.4,0.3,2c0.2,0.5,0.4,1,0.7,1.4c0.3,0.4,0.6,0.6,1,0.8s0.8,0.3,1.2,0.3c0.6,0,1.1-0.1,1.5-0.4
		c0.4-0.3,0.7-0.6,0.9-1v-6.2H1054.8z"/>
	<path class="st0" d="M1073.8,339.1h-3.8v-20.2h3.8v7.9c0.5-0.4,1.2-0.8,1.9-1.1c0.7-0.3,1.5-0.4,2.3-0.4c0.8,0,1.5,0.1,2.1,0.4
		c0.6,0.2,1.1,0.6,1.5,1s0.7,0.9,0.9,1.5c0.2,0.6,0.3,1.2,0.3,1.9v9h-3.8v-8.3c0-0.9-0.2-1.6-0.6-2s-0.9-0.6-1.6-0.6
		c-0.5,0-1,0.1-1.5,0.4c-0.5,0.2-1,0.6-1.4,0.9L1073.8,339.1L1073.8,339.1z"/>
	<path class="st0" d="M1099.3,332.2c0,1.1-0.2,2.1-0.5,3c-0.4,0.9-0.9,1.6-1.5,2.2c-0.6,0.6-1.4,1.1-2.2,1.4
		c-0.9,0.3-1.8,0.5-2.7,0.5c-1,0-1.9-0.2-2.7-0.5c-0.8-0.3-1.6-0.7-2.2-1.3s-1.1-1.3-1.4-2.2c-0.4-0.9-0.5-1.8-0.5-2.9
		c0-1.2,0.2-2.2,0.5-3.1c0.4-0.9,0.9-1.7,1.5-2.3s1.4-1.1,2.2-1.4c0.9-0.3,1.8-0.5,2.7-0.5s1.9,0.2,2.7,0.5c0.8,0.3,1.6,0.7,2.2,1.3
		c0.6,0.6,1.1,1.3,1.4,2.2C1099.1,330.1,1099.3,331.1,1099.3,332.2z M1095.4,332.4c0-0.8-0.1-1.4-0.3-2c-0.2-0.5-0.4-1-0.7-1.3
		c-0.3-0.3-0.6-0.6-1-0.8s-0.8-0.2-1.2-0.2s-0.8,0.1-1.1,0.2c-0.4,0.1-0.7,0.4-1,0.7c-0.3,0.3-0.5,0.8-0.7,1.3
		c-0.2,0.5-0.3,1.2-0.3,2.1c0,0.7,0.1,1.4,0.3,1.9c0.2,0.5,0.4,1,0.7,1.3c0.3,0.3,0.6,0.6,1,0.8s0.8,0.3,1.1,0.3
		c0.3,0,0.8-0.1,1.1-0.2c0.4-0.1,0.7-0.4,1-0.7c0.3-0.3,0.5-0.8,0.7-1.3C1095.4,333.8,1095.4,333.2,1095.4,332.4z"/>
	<path class="st0" d="M1109.1,336.6c0.6,0,1.1-0.1,1.6-0.2c0.5-0.2,0.8-0.3,1.1-0.5l0.7,2.6c-0.4,0.2-0.9,0.4-1.6,0.6
		c-0.7,0.2-1.5,0.3-2.3,0.3c-1,0-2-0.2-2.9-0.5s-1.7-0.7-2.3-1.3s-1.2-1.3-1.5-2.2c-0.4-0.9-0.6-1.9-0.6-3s0.2-2,0.5-2.9
		c0.4-0.9,0.9-1.6,1.5-2.2c0.6-0.6,1.4-1.1,2.3-1.4c0.9-0.3,1.9-0.5,3-0.5c0.6,0,1.2,0.1,1.9,0.2c0.7,0.1,1.3,0.4,2.1,0.7l-0.8,2.6
		c-0.4-0.2-0.8-0.4-1.3-0.6c-0.5-0.1-0.9-0.2-1.4-0.2c-1.2,0-2.1,0.4-2.8,1.1c-0.7,0.7-1.1,1.8-1.1,3.1c0,0.8,0.1,1.5,0.4,2.1
		c0.2,0.6,0.5,1,0.9,1.3s0.8,0.6,1.3,0.7C1108.1,336.6,1108.6,336.6,1109.1,336.6z"/>
	<path class="st0" d="M1125.6,321.3l2,8.2c0.1,0.2,0.1,0.6,0.2,1.1c0.1,0.5,0.2,1,0.3,1.5s0.2,1.1,0.3,1.6s0.2,1,0.2,1.3h0.1
		c0.1-0.4,0.1-0.8,0.2-1.3c0.1-0.5,0.2-1,0.3-1.6c0.1-0.5,0.2-1,0.3-1.5s0.2-0.8,0.2-1.1l2.1-8.2h4l2.1,8.2c0.1,0.2,0.1,0.6,0.2,1.1
		s0.2,1,0.3,1.5c0.1,0.5,0.2,1.1,0.3,1.6c0.1,0.5,0.2,1,0.2,1.3h0.1c0.1-0.4,0.1-0.8,0.2-1.3s0.2-1,0.3-1.6c0.1-0.5,0.2-1,0.3-1.5
		c0.1-0.5,0.2-0.9,0.2-1.1l1.9-8.2h3.9l-4.6,17.8h-4.2l-2.3-9.2c-0.2-0.8-0.4-1.5-0.5-2.2c-0.2-0.7-0.3-1.5-0.5-2.3h-0.1
		c-0.2,0.8-0.3,1.5-0.5,2.3c-0.2,0.7-0.3,1.5-0.5,2.2l-2.2,9.2h-4.2l-4.6-17.8H1125.6z"/>
	<path class="st0" d="M1149.9,322.7c-0.6,0-1.1-0.2-1.5-0.6c-0.4-0.4-0.5-0.8-0.5-1.4c0-0.5,0.2-1,0.5-1.4c0.4-0.4,0.9-0.6,1.5-0.6
		s1.1,0.2,1.5,0.6c0.4,0.4,0.6,0.8,0.6,1.4c0,0.5-0.2,1-0.5,1.4C1151,322.5,1150.5,322.7,1149.9,322.7z M1148,339.1v-13.5h3.8v13.5
		H1148z"/>
	<path class="st0" d="M1159.4,331.4v2.3h-5v-2.3H1159.4z"/>
	<path class="st0" d="M1170.9,339.1v-10.8h-4.6v10.8h-3.7v-10.8h-2.1v-2.7h2.1v-1.2c0-0.9,0.1-1.7,0.4-2.3c0.3-0.7,0.6-1.3,1.1-1.7
		c0.5-0.5,1.1-0.8,1.8-1.1c0.7-0.2,1.5-0.4,2.3-0.4c0.7,0,1.4,0.1,2.2,0.3c0.7,0.2,1.3,0.4,1.9,0.7l-0.8,2.5
		c-0.3-0.2-0.7-0.3-1.1-0.4c-0.4-0.1-0.8-0.2-1.2-0.2c-1,0-1.7,0.2-2.2,0.7s-0.7,1.2-0.7,2.3v0.8h8.3v13.5L1170.9,339.1
		L1170.9,339.1z"/>
</g>
<g>
	<path class="st1" d="M245.5,363h4l6.6,17.8H252l-1.4-4.1h-6.3l-1.4,4.1h-4.1L245.5,363z M245.2,373.9h4.5l-0.8-2.4
		c-0.3-0.7-0.5-1.5-0.7-2.2s-0.4-1.5-0.7-2.3h-0.1c-0.2,0.7-0.4,1.5-0.7,2.2c-0.2,0.7-0.5,1.5-0.8,2.3L245.2,373.9z"/>
	<path class="st1" d="M259.5,363l2,8.2c0.1,0.2,0.1,0.6,0.2,1.1s0.2,1,0.3,1.5s0.2,1.1,0.3,1.6s0.2,1,0.2,1.3h0.1
		c0.1-0.4,0.1-0.8,0.2-1.3s0.2-1,0.3-1.6c0.1-0.5,0.2-1,0.3-1.5s0.2-0.8,0.2-1.1l2.1-8.2h4l2.1,8.2c0.1,0.2,0.1,0.6,0.2,1.1
		s0.2,1,0.3,1.5s0.2,1.1,0.3,1.6s0.2,1,0.2,1.3h0.1c0.1-0.4,0.1-0.8,0.2-1.3s0.2-1,0.3-1.6c0.1-0.5,0.2-1,0.3-1.5s0.2-0.9,0.2-1.1
		l1.9-8.2h3.9l-4.6,17.8h-4.2l-2.3-9.2c-0.2-0.8-0.4-1.5-0.5-2.2c-0.2-0.7-0.3-1.5-0.5-2.3h-0.1c-0.2,0.8-0.3,1.5-0.5,2.3
		c-0.2,0.7-0.3,1.5-0.5,2.2l-2.2,9.2h-4.1l-4.6-17.8H259.5z"/>
	<path class="st1" d="M287.6,362.7c1.1,0,2.2,0.1,3.1,0.3c0.9,0.2,1.7,0.5,2.4,0.9l-0.9,2.9c-0.8-0.4-1.5-0.7-2.2-0.9
		c-0.7-0.2-1.4-0.3-2.1-0.3c-0.9,0-1.6,0.2-2.1,0.5c-0.5,0.4-0.7,0.8-0.7,1.4s0.2,1.1,0.6,1.4c0.4,0.3,1.1,0.6,2.1,0.9l1.7,0.5
		c1.4,0.5,2.5,1.1,3.3,2c0.8,0.9,1.2,1.9,1.2,3.2c0,0.8-0.1,1.5-0.4,2.1c-0.3,0.7-0.7,1.2-1.3,1.7c-0.6,0.5-1.3,0.9-2.1,1.2
		c-0.8,0.3-1.8,0.4-3,0.4c-2.1,0-4.1-0.4-5.9-1.3l0.9-2.9c0.8,0.4,1.6,0.7,2.4,0.9c0.8,0.2,1.6,0.3,2.4,0.3c1,0,1.8-0.2,2.3-0.6
		s0.8-0.9,0.8-1.5c0-0.2,0-0.4-0.1-0.7c-0.1-0.2-0.2-0.4-0.5-0.6c-0.3-0.2-0.5-0.4-0.9-0.6s-0.9-0.4-1.5-0.6l-1.5-0.5
		c-0.7-0.2-1.3-0.5-1.8-0.8s-1-0.6-1.4-1s-0.7-0.9-0.9-1.4c-0.2-0.5-0.3-1.2-0.3-1.9c0-0.8,0.1-1.5,0.4-2.1c0.3-0.7,0.7-1.2,1.3-1.7
		s1.2-0.8,2.1-1.1C285.6,362.8,286.5,362.7,287.6,362.7z"/>
	<path class="st1" d="M308.9,363v17.8H305V363H308.9z"/>
	<path class="st1" d="M325.7,374c0,1.1-0.2,2.1-0.5,3c-0.4,0.9-0.9,1.6-1.5,2.2s-1.4,1.1-2.2,1.4c-0.9,0.3-1.8,0.5-2.7,0.5
		c-1,0-1.9-0.2-2.7-0.5c-0.8-0.3-1.6-0.7-2.2-1.3c-0.6-0.6-1.1-1.3-1.4-2.2c-0.4-0.9-0.5-1.8-0.5-2.9c0-1.2,0.2-2.2,0.5-3.1
		c0.4-0.9,0.9-1.7,1.5-2.3c0.6-0.6,1.4-1.1,2.2-1.4c0.9-0.3,1.8-0.5,2.7-0.5c1,0,1.9,0.2,2.7,0.5c0.8,0.3,1.6,0.7,2.2,1.3
		c0.6,0.6,1.1,1.3,1.4,2.2C325.6,371.9,325.7,372.9,325.7,374z M321.9,374.1c0-0.8-0.1-1.4-0.3-2c-0.2-0.5-0.4-1-0.7-1.3
		c-0.3-0.3-0.6-0.6-1-0.7c-0.4-0.2-0.8-0.2-1.2-0.2s-0.8,0.1-1.1,0.2c-0.4,0.1-0.7,0.4-1,0.7c-0.3,0.3-0.5,0.8-0.7,1.3
		s-0.3,1.2-0.3,2.1c0,0.7,0.1,1.4,0.3,1.9c0.2,0.5,0.4,1,0.7,1.3c0.3,0.3,0.6,0.6,1,0.8c0.4,0.2,0.8,0.3,1.1,0.3
		c0.4,0,0.8-0.1,1.1-0.2c0.4-0.1,0.7-0.4,1-0.7c0.3-0.3,0.5-0.8,0.7-1.3S321.9,374.9,321.9,374.1z"/>
	<path class="st1" d="M339.2,363v3.1h-5v14.8h-4v-14.8h-4.9V363H339.2z"/>
</g>
<g>
	<g>
		<line class="st6" x1="762.7" y1="609.7" x2="762.7" y2="607.2"/>
		<line class="st7" x1="762.7" y1="602.2" x2="762.7" y2="452.6"/>
		<line class="st6" x1="762.7" y1="450" x2="762.7" y2="447.5"/>
	</g>
</g>
<g>
	<g>
		<line class="st6" x1="462.1" y1="357.2" x2="464.3" y2="357.2"/>
		<line class="st8" x1="468.8" y1="357.2" x2="709.5" y2="357.2"/>
		<line class="st6" x1="711.7" y1="357.2" x2="713.9" y2="357.2"/>
	</g>
</g>
<g>
	<g>
		<line class="st6" x1="1017.8" y1="357.2" x2="1019.5" y2="357.2"/>
		<line class="st8" x1="1022.9" y1="357.2" x2="1205.2" y2="357.2"/>
		<line class="st6" x1="1206.8" y1="357.2" x2="1208.5" y2="357.2"/>
	</g>
</g>
<path class="st0" d="M1319.5,186.5h-88.4c-12.5,0-22.6,10.1-22.6,22.6v183.8c0,12.5,10.1,22.6,22.6,22.6h88.4
	c12.5,0,22.6-10.1,22.6-22.6V209.1C1342.1,196.6,1332,186.5,1319.5,186.5z M1331.8,392h-113V210h113V392z"/>
</svg>
