<?xml version="1.0" encoding="utf-8"?>
<!-- Generator: Adobe Illustrator 27.9.0, SVG Export Plug-In . SVG Version: 6.00 Build 0)  -->
<svg version="1.1" id="Layer_1" xmlns="http://www.w3.org/2000/svg" xmlns:xlink="http://www.w3.org/1999/xlink" x="0px" y="0px"
	 viewBox="0 0 1500 435.7" style="enable-background:new 0 0 1500 435.7;" xml:space="preserve">
<style type="text/css">
	.st0{fill:#FFFFFF;}
	.st1{enable-background:new    ;}
	.st2{fill:none;stroke:#FFFFFF;stroke-miterlimit:10;}
	.st3{fill:none;stroke:#FFFFFF;stroke-width:7;stroke-miterlimit:10;}
	.st4{fill:none;stroke:#FFFFFF;stroke-width:3;stroke-miterlimit:10;}
</style>
<g transform="matrix(1.00282e-16,1.63773,-1.63773,1.00282e-16,533.957,139.707)">
	<g transform="matrix(1.98205e-16,-3.23694,3.36582,2.06097e-16,91.3655,861.487)">
	</g>
</g>
<g>
	<path class="st0" d="M77,260.1c-1.5-0.6-2.8-1.6-3.7-2.8c-0.9-1.2-1.4-2.7-1.5-4.5h6.9c0.1,1,0.4,1.7,1,2.3
		c0.6,0.5,1.3,0.8,2.3,0.8c1,0,1.7-0.2,2.3-0.7c0.6-0.4,0.8-1.1,0.8-1.8c0-0.7-0.2-1.2-0.7-1.6c-0.4-0.4-1-0.8-1.6-1.1
		c-0.6-0.3-1.6-0.6-2.8-0.9c-1.7-0.5-3.1-1.1-4.2-1.6c-1.1-0.5-2-1.3-2.8-2.4c-0.8-1-1.2-2.4-1.2-4.1c0-2.5,0.9-4.4,2.7-5.8
		c1.8-1.4,4.1-2.1,7-2.1c2.9,0,5.3,0.7,7.1,2.1c1.8,1.4,2.8,3.4,2.9,5.9h-7c-0.1-0.9-0.4-1.5-1-2c-0.6-0.5-1.3-0.7-2.2-0.7
		c-0.8,0-1.4,0.2-1.9,0.6c-0.5,0.4-0.7,1-0.7,1.8c0,0.9,0.4,1.5,1.2,2c0.8,0.5,2.1,1,3.8,1.6c1.7,0.6,3.1,1.1,4.2,1.7
		c1.1,0.5,2,1.3,2.8,2.3s1.2,2.3,1.2,3.9c0,1.5-0.4,2.9-1.2,4.1c-0.8,1.2-1.9,2.2-3.4,3c-1.5,0.7-3.2,1.1-5.2,1.1
		C80.3,261.1,78.5,260.8,77,260.1z"/>
	<path class="st0" d="M115.8,251.8h-14.7c0.1,1.3,0.5,2.3,1.3,3c0.7,0.7,1.7,1,2.8,1c1.6,0,2.7-0.7,3.4-2.1h6.9
		c-0.4,1.4-1,2.6-1.9,3.8c-0.9,1.1-2.1,2-3.5,2.6c-1.4,0.6-3,1-4.7,1c-2.1,0-3.9-0.4-5.5-1.3c-1.6-0.9-2.9-2.2-3.8-3.8
		c-0.9-1.6-1.4-3.6-1.4-5.8s0.4-4.1,1.3-5.8c0.9-1.6,2.2-2.9,3.8-3.8c1.6-0.9,3.5-1.3,5.6-1.3c2.1,0,3.9,0.4,5.5,1.3
		c1.6,0.9,2.8,2.1,3.7,3.7c0.9,1.6,1.3,3.5,1.3,5.6C115.9,250.5,115.9,251.1,115.8,251.8z M109.3,248.2c0-1.1-0.4-2-1.1-2.7
		c-0.8-0.7-1.7-1-2.8-1c-1.1,0-2,0.3-2.8,1c-0.7,0.6-1.2,1.5-1.4,2.7H109.3z"/>
	<path class="st0" d="M128.7,240.4c1.1-0.7,2.4-1,3.8-1v6.9h-1.8c-1.6,0-2.8,0.3-3.6,1c-0.8,0.7-1.2,1.9-1.2,3.7v9.8h-6.5v-21.2h6.5
		v3.5C126.6,242,127.5,241.1,128.7,240.4z"/>
	<path class="st0" d="M136.1,236.4c-0.7-0.7-1.1-1.5-1.1-2.5c0-1,0.4-1.9,1.1-2.5c0.7-0.7,1.7-1,2.8-1c1.1,0,2,0.3,2.8,1
		c0.7,0.7,1.1,1.5,1.1,2.5c0,1-0.4,1.8-1.1,2.5c-0.7,0.7-1.6,1-2.8,1C137.7,237.4,136.8,237.1,136.1,236.4z M142.1,239.6v21.2h-6.5
		v-21.2H142.1z"/>
	<path class="st0" d="M166.7,251.8H152c0.1,1.3,0.5,2.3,1.3,3c0.7,0.7,1.7,1,2.8,1c1.6,0,2.7-0.7,3.4-2.1h6.9
		c-0.4,1.4-1,2.6-1.9,3.8c-0.9,1.1-2.1,2-3.5,2.6c-1.4,0.6-3,1-4.7,1c-2.1,0-3.9-0.4-5.5-1.3c-1.6-0.9-2.9-2.2-3.8-3.8
		c-0.9-1.6-1.4-3.6-1.4-5.8s0.4-4.1,1.3-5.8c0.9-1.6,2.2-2.9,3.8-3.8c1.6-0.9,3.5-1.3,5.6-1.3c2.1,0,3.9,0.4,5.5,1.3
		c1.6,0.9,2.8,2.1,3.7,3.7c0.9,1.6,1.3,3.5,1.3,5.6C166.8,250.5,166.7,251.1,166.7,251.8z M160.1,248.2c0-1.1-0.4-2-1.1-2.7
		c-0.8-0.7-1.7-1-2.8-1c-1.1,0-2,0.3-2.8,1c-0.7,0.6-1.2,1.5-1.4,2.7H160.1z"/>
	<path class="st0" d="M173.9,260.2c-1.4-0.6-2.6-1.5-3.4-2.6c-0.8-1.1-1.3-2.3-1.4-3.7h6.4c0.1,0.7,0.4,1.3,1,1.8
		c0.6,0.5,1.4,0.7,2.2,0.7c0.8,0,1.4-0.2,1.9-0.5c0.4-0.3,0.7-0.7,0.7-1.2c0-0.6-0.3-1.1-1-1.3c-0.6-0.3-1.7-0.6-3.1-1
		c-1.5-0.4-2.8-0.7-3.8-1.1c-1-0.4-1.9-1-2.6-1.9c-0.7-0.8-1.1-2-1.1-3.4c0-1.2,0.3-2.3,1-3.3c0.7-1,1.7-1.8,3-2.4
		c1.3-0.6,2.9-0.9,4.7-0.9c2.7,0,4.8,0.7,6.3,2c1.5,1.3,2.4,3.1,2.6,5.2h-6c-0.1-0.7-0.4-1.3-1-1.7c-0.5-0.4-1.3-0.6-2.1-0.6
		c-0.8,0-1.3,0.1-1.7,0.4c-0.4,0.3-0.6,0.7-0.6,1.2c0,0.6,0.3,1.1,1,1.4c0.6,0.3,1.7,0.6,3,0.9c1.6,0.4,2.8,0.8,3.8,1.2
		c1,0.4,1.9,1,2.6,1.9c0.7,0.9,1.1,2,1.2,3.5c0,1.2-0.3,2.3-1,3.3c-0.7,1-1.7,1.7-3,2.3c-1.3,0.6-2.8,0.8-4.5,0.8
		C177,261.1,175.3,260.8,173.9,260.2z"/>
</g>
<g>
	<path class="st0" d="M257.8,234.1v16c0,1.6,0.4,2.8,1.2,3.7c0.8,0.9,1.9,1.3,3.5,1.3c1.5,0,2.7-0.4,3.5-1.3
		c0.8-0.9,1.2-2.1,1.2-3.7v-16h6.5v15.9c0,2.4-0.5,4.4-1.5,6c-1,1.6-2.4,2.9-4.1,3.7c-1.7,0.8-3.6,1.3-5.7,1.3c-2.1,0-4-0.4-5.6-1.2
		c-1.7-0.8-3-2.1-3.9-3.7c-1-1.7-1.4-3.7-1.4-6.1v-15.9H257.8z"/>
	<path class="st0" d="M284.6,234.1v26.7h-6.5v-26.7H284.6z"/>
	<path class="st0" d="M306.7,235.8c2.1,1.1,3.7,2.7,4.9,4.7c1.2,2,1.7,4.3,1.7,7c0,2.6-0.6,4.9-1.7,7c-1.2,2-2.8,3.6-4.9,4.7
		c-2.1,1.1-4.6,1.7-7.4,1.7h-10v-26.7h10C302.2,234.1,304.6,234.7,306.7,235.8z M304.7,253.2c1.4-1.3,2.1-3.2,2.1-5.7
		c0-2.5-0.7-4.4-2.1-5.7c-1.4-1.4-3.3-2.1-5.7-2.1h-3.1v15.5h3.1C301.4,255.2,303.3,254.5,304.7,253.2z"/>
</g>
<g>
	<path class="st0" d="M1270.3,128.3c-0.7,1.3-1.8,2.3-3.3,3.1c-1.5,0.8-3.3,1.2-5.5,1.2h-4v9.6h-6.5v-26.7h10.5
		c2.1,0,3.9,0.4,5.4,1.1c1.5,0.7,2.6,1.7,3.3,3c0.7,1.3,1.1,2.8,1.1,4.4C1271.4,125.6,1271,127.1,1270.3,128.3z M1263.9,126.6
		c0.6-0.6,0.9-1.4,0.9-2.5c0-1.1-0.3-1.9-0.9-2.5c-0.6-0.6-1.5-0.9-2.8-0.9h-3.5v6.7h3.5C1262.3,127.4,1263.3,127.1,1263.9,126.6z"
		/>
	<path class="st0" d="M1284.1,121.8c1.1-0.7,2.4-1,3.8-1v6.9h-1.8c-1.6,0-2.8,0.3-3.6,1c-0.8,0.7-1.2,1.9-1.2,3.7v9.8h-6.5V121h6.5
		v3.5C1282,123.3,1283,122.4,1284.1,121.8z"/>
	<path class="st0" d="M1291.5,117.8c-0.7-0.7-1.1-1.5-1.1-2.5c0-1,0.4-1.9,1.1-2.5c0.7-0.7,1.7-1,2.8-1c1.1,0,2,0.3,2.8,1
		c0.7,0.7,1.1,1.5,1.1,2.5c0,1-0.4,1.8-1.1,2.5c-0.7,0.7-1.6,1-2.8,1C1293.2,118.8,1292.2,118.4,1291.5,117.8z M1297.5,121v21.2
		h-6.5V121H1297.5z"/>
	<path class="st0" d="M1321.1,123.2c1.5,1.6,2.2,3.8,2.2,6.6v12.4h-6.5v-11.5c0-1.4-0.4-2.5-1.1-3.3s-1.7-1.2-3-1.2
		c-1.2,0-2.2,0.4-3,1.2s-1.1,1.9-1.1,3.3v11.5h-6.5V121h6.5v2.8c0.7-0.9,1.5-1.7,2.7-2.2c1.1-0.5,2.4-0.8,3.8-0.8
		C1317.6,120.8,1319.6,121.6,1321.1,123.2z"/>
	<path class="st0" d="M1339.7,136.7v5.5h-3.3c-2.4,0-4.2-0.6-5.5-1.7c-1.3-1.2-2-3-2-5.6v-8.4h-2.6V121h2.6v-5.2h6.5v5.2h4.3v5.4
		h-4.3v8.5c0,0.6,0.2,1.1,0.5,1.4c0.3,0.3,0.8,0.4,1.5,0.4H1339.7z"/>
	<path class="st0" d="M1360.4,121.6c1.1-0.6,2.4-0.9,3.9-0.9c1.7,0,3.3,0.4,4.7,1.3c1.4,0.9,2.5,2.2,3.4,3.8
		c0.8,1.6,1.2,3.6,1.2,5.7s-0.4,4.1-1.2,5.8c-0.8,1.7-1.9,2.9-3.4,3.8c-1.4,0.9-3,1.3-4.7,1.3c-1.5,0-2.8-0.3-3.9-0.9
		c-1.1-0.6-2-1.4-2.6-2.4v13.1h-6.5V121h6.5v3C1358.4,123,1359.3,122.2,1360.4,121.6z M1365.7,127.7c-0.9-0.9-2-1.4-3.3-1.4
		c-1.3,0-2.4,0.5-3.3,1.4c-0.9,0.9-1.3,2.2-1.3,3.8c0,1.6,0.4,2.9,1.3,3.8c0.9,0.9,2,1.4,3.3,1.4c1.3,0,2.4-0.5,3.3-1.4
		c0.9-1,1.4-2.2,1.4-3.9C1367.1,129.9,1366.6,128.6,1365.7,127.7z"/>
	<path class="st0" d="M1377.1,125.8c0.8-1.6,1.9-2.9,3.4-3.8c1.4-0.9,3-1.3,4.7-1.3c1.4,0,2.7,0.3,3.8,0.9c1.2,0.6,2.1,1.4,2.7,2.4
		v-9.8h6.5v28.1h-6.5v-3c-0.6,1-1.5,1.8-2.6,2.4c-1.1,0.6-2.4,0.9-3.9,0.9c-1.7,0-3.3-0.4-4.7-1.3c-1.4-0.9-2.5-2.2-3.4-3.8
		c-0.8-1.7-1.2-3.6-1.2-5.8S1376.2,127.5,1377.1,125.8z M1390.3,127.7c-0.9-0.9-2-1.4-3.3-1.4c-1.3,0-2.4,0.5-3.3,1.4
		c-0.9,0.9-1.3,2.2-1.3,3.8c0,1.6,0.5,2.9,1.3,3.9c0.9,1,2,1.4,3.3,1.4c1.3,0,2.4-0.5,3.3-1.4c0.9-0.9,1.3-2.2,1.3-3.8
		C1391.7,130,1391.2,128.7,1390.3,127.7z"/>
	<path class="st0" d="M1413.5,126.4h-3.5v15.8h-6.5v-15.8h-2.4V121h2.4v-0.6c0-2.6,0.7-4.6,2.2-5.9c1.5-1.4,3.7-2,6.6-2
		c0.5,0,0.8,0,1.1,0v5.5c-1.2-0.1-2.1,0.1-2.6,0.5c-0.5,0.4-0.8,1.2-0.8,2.3v0.2h3.5V126.4z"/>
	<path class="st0" d="M1420.3,141.5c-1.4-0.6-2.6-1.5-3.4-2.6c-0.8-1.1-1.3-2.3-1.4-3.7h6.4c0.1,0.7,0.4,1.3,1,1.8
		c0.6,0.5,1.4,0.7,2.2,0.7c0.8,0,1.4-0.2,1.9-0.5c0.4-0.3,0.7-0.7,0.7-1.2c0-0.6-0.3-1.1-1-1.3c-0.6-0.3-1.7-0.6-3.1-1
		c-1.5-0.4-2.8-0.7-3.8-1.1c-1-0.4-1.9-1-2.6-1.9c-0.7-0.8-1.1-2-1.1-3.4c0-1.2,0.3-2.3,1-3.3c0.7-1,1.7-1.8,3-2.4
		c1.3-0.6,2.9-0.9,4.7-0.9c2.7,0,4.8,0.7,6.3,2c1.5,1.3,2.4,3.1,2.6,5.2h-6c-0.1-0.7-0.4-1.3-1-1.7c-0.5-0.4-1.3-0.6-2.1-0.6
		c-0.8,0-1.3,0.1-1.7,0.4c-0.4,0.3-0.6,0.7-0.6,1.2c0,0.6,0.3,1.1,1,1.4c0.6,0.3,1.7,0.6,3,0.9c1.6,0.4,2.8,0.8,3.8,1.2
		c1,0.4,1.9,1,2.6,1.9c0.7,0.9,1.1,2,1.2,3.5c0,1.2-0.3,2.3-1,3.3c-0.7,1-1.7,1.7-3,2.3c-1.3,0.6-2.8,0.8-4.5,0.8
		C1423.4,142.5,1421.7,142.2,1420.3,141.5z"/>
</g>
<g>
	<path class="st0" d="M560.7,115.4c-0.8-0.3-1.4-0.8-1.9-1.4s-0.7-1.4-0.7-2.2h3.5c0.1,0.5,0.2,0.9,0.5,1.1c0.3,0.3,0.7,0.4,1.1,0.4
		c0.5,0,0.9-0.1,1.1-0.3c0.3-0.2,0.4-0.5,0.4-0.9c0-0.3-0.1-0.6-0.3-0.8c-0.2-0.2-0.5-0.4-0.8-0.5c-0.3-0.1-0.8-0.3-1.4-0.5
		c-0.9-0.3-1.6-0.5-2.1-0.8c-0.5-0.3-1-0.7-1.4-1.2c-0.4-0.5-0.6-1.2-0.6-2c0-1.2,0.4-2.2,1.3-2.9c0.9-0.7,2.1-1.1,3.5-1.1
		c1.5,0,2.7,0.4,3.6,1.1c0.9,0.7,1.4,1.7,1.4,2.9h-3.5c0-0.4-0.2-0.8-0.5-1c-0.3-0.2-0.7-0.4-1.1-0.4c-0.4,0-0.7,0.1-1,0.3
		c-0.2,0.2-0.4,0.5-0.4,0.9c0,0.4,0.2,0.8,0.6,1c0.4,0.2,1,0.5,1.9,0.8c0.9,0.3,1.6,0.6,2.1,0.8c0.5,0.3,1,0.7,1.4,1.2
		c0.4,0.5,0.6,1.2,0.6,2c0,0.8-0.2,1.4-0.6,2.1c-0.4,0.6-0.9,1.1-1.7,1.5c-0.7,0.4-1.6,0.6-2.6,0.6
		C562.3,115.9,561.5,115.8,560.7,115.4z"/>
	<path class="st0" d="M580.1,111.3h-7.4c0.1,0.7,0.3,1.2,0.6,1.5c0.4,0.3,0.8,0.5,1.4,0.5c0.8,0,1.4-0.3,1.7-1h3.5
		c-0.2,0.7-0.5,1.3-1,1.9c-0.5,0.6-1,1-1.7,1.3c-0.7,0.3-1.5,0.5-2.3,0.5c-1,0-2-0.2-2.8-0.7c-0.8-0.4-1.4-1.1-1.9-1.9
		c-0.5-0.8-0.7-1.8-0.7-2.9s0.2-2.1,0.7-2.9c0.4-0.8,1.1-1.5,1.9-1.9c0.8-0.4,1.7-0.7,2.8-0.7c1,0,1.9,0.2,2.7,0.6
		c0.8,0.4,1.4,1,1.9,1.8c0.4,0.8,0.7,1.7,0.7,2.8C580.2,110.6,580.1,110.9,580.1,111.3z M576.8,109.5c0-0.6-0.2-1-0.6-1.3
		c-0.4-0.3-0.9-0.5-1.4-0.5c-0.5,0-1,0.2-1.4,0.5c-0.4,0.3-0.6,0.8-0.7,1.3H576.8z"/>
	<path class="st0" d="M586.5,105.6c0.6-0.3,1.2-0.5,1.9-0.5v3.4h-0.9c-0.8,0-1.4,0.2-1.8,0.5c-0.4,0.3-0.6,1-0.6,1.8v4.9h-3.2v-10.6
		h3.2v1.8C585.5,106.4,586,105.9,586.5,105.6z"/>
	<path class="st0" d="M590.2,103.6c-0.4-0.3-0.5-0.7-0.5-1.2c0-0.5,0.2-0.9,0.5-1.3c0.4-0.3,0.8-0.5,1.4-0.5c0.6,0,1,0.2,1.4,0.5
		c0.4,0.3,0.5,0.8,0.5,1.3c0,0.5-0.2,0.9-0.5,1.2c-0.4,0.3-0.8,0.5-1.4,0.5C591.1,104.1,590.6,103.9,590.2,103.6z M593.2,105.2v10.6
		H590v-10.6H593.2z"/>
	<path class="st0" d="M605.5,111.3h-7.4c0.1,0.7,0.3,1.2,0.6,1.5c0.4,0.3,0.8,0.5,1.4,0.5c0.8,0,1.4-0.3,1.7-1h3.5
		c-0.2,0.7-0.5,1.3-1,1.9c-0.5,0.6-1,1-1.7,1.3c-0.7,0.3-1.5,0.5-2.3,0.5c-1,0-2-0.2-2.8-0.7c-0.8-0.4-1.4-1.1-1.9-1.9
		c-0.5-0.8-0.7-1.8-0.7-2.9s0.2-2.1,0.7-2.9c0.4-0.8,1.1-1.5,1.9-1.9c0.8-0.4,1.7-0.7,2.8-0.7c1,0,1.9,0.2,2.7,0.6
		c0.8,0.4,1.4,1,1.9,1.8c0.4,0.8,0.7,1.7,0.7,2.8C605.6,110.6,605.6,110.9,605.5,111.3z M602.3,109.5c0-0.6-0.2-1-0.6-1.3
		c-0.4-0.3-0.9-0.5-1.4-0.5c-0.5,0-1,0.2-1.4,0.5c-0.4,0.3-0.6,0.8-0.7,1.3H602.3z"/>
	<path class="st0" d="M609.1,115.5c-0.7-0.3-1.3-0.7-1.7-1.3c-0.4-0.6-0.7-1.2-0.7-1.9h3.2c0,0.4,0.2,0.7,0.5,0.9s0.7,0.3,1.1,0.3
		c0.4,0,0.7-0.1,0.9-0.2c0.2-0.2,0.3-0.4,0.3-0.6c0-0.3-0.2-0.5-0.5-0.7c-0.3-0.1-0.8-0.3-1.5-0.5c-0.8-0.2-1.4-0.4-1.9-0.6
		c-0.5-0.2-0.9-0.5-1.3-0.9c-0.4-0.4-0.6-1-0.6-1.7c0-0.6,0.2-1.2,0.5-1.7c0.3-0.5,0.8-0.9,1.5-1.2c0.7-0.3,1.4-0.4,2.3-0.4
		c1.3,0,2.4,0.3,3.1,1c0.8,0.7,1.2,1.5,1.3,2.6h-3c-0.1-0.4-0.2-0.7-0.5-0.9c-0.3-0.2-0.6-0.3-1.1-0.3c-0.4,0-0.7,0.1-0.9,0.2
		c-0.2,0.1-0.3,0.3-0.3,0.6c0,0.3,0.2,0.5,0.5,0.7c0.3,0.2,0.8,0.3,1.5,0.5c0.8,0.2,1.4,0.4,1.9,0.6c0.5,0.2,0.9,0.5,1.3,1
		c0.4,0.4,0.6,1,0.6,1.8c0,0.6-0.2,1.2-0.5,1.7c-0.3,0.5-0.8,0.9-1.5,1.1c-0.7,0.3-1.4,0.4-2.3,0.4
		C610.7,115.9,609.9,115.8,609.1,115.5z"/>
</g>
<g>
	<path class="st0" d="M561.3,193.3c-1-0.6-1.9-1.4-2.5-2.4c-0.6-1-0.9-2.2-0.9-3.5c0-1.3,0.3-2.5,0.9-3.5c0.6-1,1.4-1.8,2.5-2.4
		c1-0.6,2.2-0.9,3.4-0.9c1.3,0,2.4,0.3,3.4,0.9c1,0.6,1.9,1.4,2.5,2.4c0.6,1,0.9,2.2,0.9,3.5c0,1.3-0.3,2.5-0.9,3.5
		c-0.6,1-1.4,1.9-2.5,2.4c-1,0.6-2.2,0.9-3.4,0.9C563.5,194.1,562.4,193.8,561.3,193.3z M567.3,190.1c0.6-0.7,1-1.6,1-2.8
		c0-1.2-0.3-2.1-1-2.8c-0.6-0.7-1.5-1.1-2.6-1.1c-1.1,0-1.9,0.3-2.6,1c-0.6,0.7-1,1.6-1,2.8c0,1.2,0.3,2.1,1,2.8
		c0.6,0.7,1.5,1.1,2.6,1.1C565.9,191.2,566.7,190.8,567.3,190.1z"/>
	<path class="st0" d="M578.1,183.8c0.6-0.3,1.2-0.5,1.9-0.5v3.4h-0.9c-0.8,0-1.4,0.2-1.8,0.5c-0.4,0.3-0.6,1-0.6,1.8v4.9h-3.2v-10.6
		h3.2v1.8C577,184.6,577.5,184.1,578.1,183.8z"/>
	<path class="st0" d="M581.5,185.8c0.4-0.8,1-1.5,1.7-1.9c0.7-0.4,1.5-0.7,2.4-0.7c0.7,0,1.3,0.1,1.9,0.4c0.6,0.3,1,0.7,1.4,1.2
		v-4.9h3.2V194h-3.2v-1.5c-0.3,0.5-0.7,0.9-1.3,1.2c-0.6,0.3-1.2,0.5-2,0.5c-0.9,0-1.7-0.2-2.4-0.7c-0.7-0.4-1.3-1.1-1.7-1.9
		c-0.4-0.8-0.6-1.8-0.6-2.9C580.9,187.6,581.1,186.6,581.5,185.8z M588.2,186.8c-0.4-0.5-1-0.7-1.6-0.7s-1.2,0.2-1.6,0.7
		c-0.4,0.5-0.7,1.1-0.7,1.9c0,0.8,0.2,1.5,0.7,1.9c0.4,0.5,1,0.7,1.6,0.7s1.2-0.2,1.6-0.7c0.4-0.5,0.7-1.1,0.7-1.9
		C588.8,187.9,588.6,187.3,588.2,186.8z"/>
	<path class="st0" d="M604.4,189.5H597c0.1,0.7,0.3,1.2,0.6,1.5c0.4,0.3,0.8,0.5,1.4,0.5c0.8,0,1.4-0.3,1.7-1h3.5
		c-0.2,0.7-0.5,1.3-1,1.9c-0.5,0.6-1,1-1.7,1.3c-0.7,0.3-1.5,0.5-2.3,0.5c-1,0-2-0.2-2.8-0.7c-0.8-0.4-1.4-1.1-1.9-1.9
		c-0.5-0.8-0.7-1.8-0.7-2.9c0-1.1,0.2-2.1,0.7-2.9c0.4-0.8,1.1-1.5,1.9-1.9c0.8-0.4,1.7-0.7,2.8-0.7c1,0,1.9,0.2,2.7,0.6
		c0.8,0.4,1.4,1,1.9,1.8c0.4,0.8,0.7,1.7,0.7,2.8C604.4,188.8,604.4,189.2,604.4,189.5z M601.1,187.7c0-0.6-0.2-1-0.6-1.3
		c-0.4-0.3-0.9-0.5-1.4-0.5c-0.5,0-1,0.2-1.4,0.5c-0.4,0.3-0.6,0.8-0.7,1.3H601.1z"/>
	<path class="st0" d="M610.8,183.8c0.6-0.3,1.2-0.5,1.9-0.5v3.4h-0.9c-0.8,0-1.4,0.2-1.8,0.5c-0.4,0.3-0.6,1-0.6,1.8v4.9h-3.2v-10.6
		h3.2v1.8C609.8,184.6,610.2,184.1,610.8,183.8z"/>
	<path class="st0" d="M620.5,193.7c-0.8-0.3-1.4-0.8-1.9-1.4c-0.5-0.6-0.7-1.4-0.7-2.2h3.5c0.1,0.5,0.2,0.9,0.5,1.1
		c0.3,0.3,0.7,0.4,1.1,0.4c0.5,0,0.9-0.1,1.1-0.3c0.3-0.2,0.4-0.5,0.4-0.9c0-0.3-0.1-0.6-0.3-0.8c-0.2-0.2-0.5-0.4-0.8-0.5
		c-0.3-0.1-0.8-0.3-1.4-0.5c-0.9-0.3-1.6-0.5-2.1-0.8c-0.5-0.3-1-0.7-1.4-1.2c-0.4-0.5-0.6-1.2-0.6-2c0-1.2,0.4-2.2,1.3-2.9
		c0.9-0.7,2.1-1.1,3.5-1.1c1.5,0,2.7,0.4,3.6,1.1c0.9,0.7,1.4,1.7,1.4,2.9h-3.5c0-0.4-0.2-0.8-0.5-1c-0.3-0.2-0.7-0.4-1.1-0.4
		c-0.4,0-0.7,0.1-1,0.3c-0.2,0.2-0.4,0.5-0.4,0.9c0,0.4,0.2,0.8,0.6,1c0.4,0.2,1,0.5,1.9,0.8c0.9,0.3,1.6,0.6,2.1,0.8
		c0.5,0.3,1,0.7,1.4,1.2c0.4,0.5,0.6,1.2,0.6,2c0,0.8-0.2,1.4-0.6,2.1s-0.9,1.1-1.7,1.5c-0.7,0.4-1.6,0.6-2.6,0.6
		C622.2,194.1,621.3,194,620.5,193.7z"/>
	<path class="st0" d="M630.2,181.8c-0.4-0.3-0.5-0.7-0.5-1.2c0-0.5,0.2-0.9,0.5-1.3c0.4-0.3,0.8-0.5,1.4-0.5c0.6,0,1,0.2,1.4,0.5
		c0.4,0.3,0.5,0.8,0.5,1.3c0,0.5-0.2,0.9-0.5,1.2c-0.4,0.3-0.8,0.5-1.4,0.5C631,182.3,630.6,182.1,630.2,181.8z M633.2,183.4V194
		H630v-10.6H633.2z"/>
	<path class="st0" d="M638.6,191.3h4.6v2.7H635v-2.6l4.4-5.3H635v-2.7h8.1v2.6L638.6,191.3z"/>
	<path class="st0" d="M654.9,189.5h-7.4c0.1,0.7,0.3,1.2,0.6,1.5c0.4,0.3,0.8,0.5,1.4,0.5c0.8,0,1.4-0.3,1.7-1h3.5
		c-0.2,0.7-0.5,1.3-1,1.9c-0.5,0.6-1,1-1.7,1.3c-0.7,0.3-1.5,0.5-2.3,0.5c-1,0-2-0.2-2.8-0.7s-1.4-1.1-1.9-1.9
		c-0.5-0.8-0.7-1.8-0.7-2.9c0-1.1,0.2-2.1,0.7-2.9c0.4-0.8,1.1-1.5,1.9-1.9c0.8-0.4,1.7-0.7,2.8-0.7c1,0,1.9,0.2,2.7,0.6
		c0.8,0.4,1.4,1,1.9,1.8c0.4,0.8,0.7,1.7,0.7,2.8C655,188.8,655,189.2,654.9,189.5z M651.7,187.7c0-0.6-0.2-1-0.6-1.3
		c-0.4-0.3-0.9-0.5-1.4-0.5c-0.5,0-1,0.2-1.4,0.5c-0.4,0.3-0.6,0.8-0.7,1.3H651.7z"/>
</g>
<image style="overflow:visible;" width="153" height="297" xlink:href="32608AAB229A0955.jpg"  transform="matrix(1 0 0 1 745 63)">
</image>
<g class="st1">
	<path class="st0" d="M93.4,197.6l-6.7-10.1l-5.9,10.1h-9.1l10.6-16.8l-10.8-16.3h9.4l6.6,10l5.8-10h9.1l-10.5,16.7l10.9,16.4H93.4z
		"/>
	<path class="st0" d="M127.1,197.6l-6.7-10.1l-5.9,10.1h-9.1l10.6-16.8l-10.8-16.3h9.4l6.6,10l5.8-10h9.1l-10.5,16.7l10.9,16.4
		H127.1z"/>
	<path class="st0" d="M161.2,191.8h-12.4l-2,5.8h-8.4l12-33.1h9.3l12,33.1h-8.5L161.2,191.8z M159.1,185.5l-4.1-12.1l-4.1,12.1
		H159.1z"/>
	<path class="st0" d="M195.9,191.8h-12.4l-2,5.8h-8.4l12-33.1h9.3l12,33.1h-8.5L195.9,191.8z M193.8,185.5l-4.1-12.1l-4.1,12.1
		H193.8z"/>
	<path class="st0" d="M230.7,191.8h-12.4l-2,5.8h-8.4l12-33.1h9.3l12,33.1h-8.5L230.7,191.8z M228.6,185.5l-4.1-12.1l-4.1,12.1
		H228.6z"/>
	<path class="st0" d="M265.4,191.8h-12.4l-2,5.8h-8.4l12-33.1h9.3l12,33.1h-8.5L265.4,191.8z M263.3,185.5l-4.1-12.1l-4.1,12.1
		H263.3z"/>
	<path class="st0" d="M300.2,191.8h-12.4l-2,5.8h-8.4l12-33.1h9.3l12,33.1h-8.5L300.2,191.8z M298.1,185.5l-4.1-12.1l-4.1,12.1
		H298.1z"/>
	<path class="st0" d="M334.9,191.8h-12.4l-2,5.8h-8.4l12-33.1h9.3l12,33.1h-8.5L334.9,191.8z M332.8,185.5l-4.1-12.1l-4.1,12.1
		H332.8z"/>
</g>
<polyline class="st2" points="70.2,204.4 70.2,214.3 135.2,214.3 135.2,204.4 "/>
<polyline class="st2" points="138.5,204.4 138.5,214.3 346.5,214.3 346.5,204.4 "/>
<line class="st2" x1="100" y1="214.3" x2="100" y2="232.7"/>
<line class="st2" x1="285.8" y1="214.3" x2="285.8" y2="232.7"/>
<rect x="548.4" y="120.7" class="st2" width="173.4" height="40.1"/>
<rect x="548.4" y="207" class="st2" width="173.4" height="40.1"/>
<g>
	<path class="st0" d="M601.1,289.1c-0.2-0.4-0.6-0.8-1-1c-0.4-0.2-1-0.4-1.6-0.4c-1.1,0-1.9,0.3-2.5,1c-0.6,0.7-1,1.6-1,2.8
		c0,1.2,0.3,2.2,1,2.9c0.7,0.7,1.6,1,2.7,1c0.8,0,1.5-0.2,2-0.6c0.6-0.4,1-1,1.2-1.7h-4.1v-2.4h7.1v3c-0.2,0.8-0.6,1.6-1.2,2.3
		c-0.6,0.7-1.3,1.3-2.2,1.7c-0.9,0.4-1.9,0.6-3,0.6c-1.3,0-2.5-0.3-3.5-0.9c-1-0.6-1.8-1.4-2.4-2.4c-0.6-1-0.9-2.2-0.9-3.5
		c0-1.3,0.3-2.5,0.9-3.5c0.6-1,1.4-1.8,2.4-2.4c1-0.6,2.2-0.9,3.5-0.9c1.6,0,2.9,0.4,4,1.2c1.1,0.8,1.8,1.8,2.2,3.2H601.1z"/>
	<path class="st0" d="M616.7,293.7h-7.4c0.1,0.7,0.3,1.2,0.6,1.5c0.4,0.3,0.8,0.5,1.4,0.5c0.8,0,1.4-0.3,1.7-1h3.5
		c-0.2,0.7-0.5,1.3-1,1.9c-0.5,0.6-1,1-1.7,1.3c-0.7,0.3-1.5,0.5-2.3,0.5c-1,0-2-0.2-2.8-0.7c-0.8-0.4-1.4-1.1-1.9-1.9
		c-0.5-0.8-0.7-1.8-0.7-2.9c0-1.1,0.2-2.1,0.7-2.9c0.4-0.8,1.1-1.5,1.9-1.9c0.8-0.4,1.7-0.7,2.8-0.7c1,0,1.9,0.2,2.7,0.6
		c0.8,0.4,1.4,1,1.9,1.8c0.4,0.8,0.7,1.7,0.7,2.8C616.8,293.1,616.7,293.4,616.7,293.7z M613.4,291.9c0-0.6-0.2-1-0.6-1.3
		c-0.4-0.3-0.9-0.5-1.4-0.5c-0.5,0-1,0.2-1.4,0.5c-0.4,0.3-0.6,0.8-0.7,1.3H613.4z"/>
	<path class="st0" d="M627.9,288.7c0.7,0.8,1.1,1.9,1.1,3.3v6.2h-3.2v-5.8c0-0.7-0.2-1.3-0.6-1.7c-0.4-0.4-0.9-0.6-1.5-0.6
		c-0.6,0-1.1,0.2-1.5,0.6c-0.4,0.4-0.6,0.9-0.6,1.7v5.8h-3.2v-10.6h3.2v1.4c0.3-0.5,0.8-0.8,1.3-1.1c0.6-0.3,1.2-0.4,1.9-0.4
		C626.2,287.5,627.2,287.9,627.9,288.7z"/>
	<path class="st0" d="M641.2,293.7h-7.4c0.1,0.7,0.3,1.2,0.6,1.5c0.4,0.3,0.8,0.5,1.4,0.5c0.8,0,1.4-0.3,1.7-1h3.5
		c-0.2,0.7-0.5,1.3-1,1.9c-0.5,0.6-1,1-1.7,1.3c-0.7,0.3-1.5,0.5-2.3,0.5c-1,0-2-0.2-2.8-0.7c-0.8-0.4-1.4-1.1-1.9-1.9
		c-0.5-0.8-0.7-1.8-0.7-2.9c0-1.1,0.2-2.1,0.7-2.9c0.4-0.8,1.1-1.5,1.9-1.9c0.8-0.4,1.7-0.7,2.8-0.7c1,0,1.9,0.2,2.7,0.6
		c0.8,0.4,1.4,1,1.9,1.8c0.4,0.8,0.7,1.7,0.7,2.8C641.3,293.1,641.2,293.4,641.2,293.7z M637.9,291.9c0-0.6-0.2-1-0.6-1.3
		c-0.4-0.3-0.9-0.5-1.4-0.5c-0.5,0-1,0.2-1.4,0.5c-0.4,0.3-0.6,0.8-0.7,1.3H637.9z"/>
	<path class="st0" d="M647.6,288c0.6-0.3,1.2-0.5,1.9-0.5v3.4h-0.9c-0.8,0-1.4,0.2-1.8,0.5c-0.4,0.3-0.6,1-0.6,1.8v4.9H643v-10.6
		h3.2v1.8C646.6,288.8,647.1,288.4,647.6,288z"/>
	<path class="st0" d="M651.1,290.1c0.4-0.8,1-1.5,1.7-1.9c0.7-0.4,1.5-0.7,2.4-0.7c0.7,0,1.4,0.2,2,0.5c0.6,0.3,1,0.7,1.3,1.2v-1.5
		h3.2v10.6h-3.2v-1.5c-0.3,0.5-0.8,0.9-1.3,1.2c-0.6,0.3-1.2,0.5-2,0.5c-0.9,0-1.6-0.2-2.4-0.7c-0.7-0.4-1.3-1.1-1.7-1.9
		c-0.4-0.8-0.6-1.8-0.6-2.9C650.5,291.8,650.7,290.9,651.1,290.1z M657.7,291c-0.4-0.5-1-0.7-1.6-0.7c-0.6,0-1.2,0.2-1.6,0.7
		c-0.4,0.5-0.7,1.1-0.7,1.9c0,0.8,0.2,1.5,0.7,1.9c0.4,0.5,1,0.7,1.6,0.7c0.6,0,1.2-0.2,1.6-0.7c0.4-0.5,0.7-1.1,0.7-1.9
		C658.4,292.1,658.2,291.5,657.7,291z"/>
	<path class="st0" d="M669.9,295.5v2.8h-1.7c-1.2,0-2.1-0.3-2.8-0.9c-0.7-0.6-1-1.5-1-2.8v-4.2h-1.3v-2.7h1.3v-2.6h3.2v2.6h2.1v2.7
		h-2.1v4.3c0,0.3,0.1,0.5,0.2,0.7c0.2,0.1,0.4,0.2,0.8,0.2H669.9z"/>
	<path class="st0" d="M681.6,293.7h-7.4c0.1,0.7,0.3,1.2,0.6,1.5c0.4,0.3,0.8,0.5,1.4,0.5c0.8,0,1.4-0.3,1.7-1h3.5
		c-0.2,0.7-0.5,1.3-1,1.9c-0.5,0.6-1,1-1.7,1.3c-0.7,0.3-1.5,0.5-2.3,0.5c-1,0-2-0.2-2.8-0.7c-0.8-0.4-1.4-1.1-1.9-1.9
		c-0.5-0.8-0.7-1.8-0.7-2.9c0-1.1,0.2-2.1,0.7-2.9c0.4-0.8,1.1-1.5,1.9-1.9c0.8-0.4,1.7-0.7,2.8-0.7c1,0,1.9,0.2,2.7,0.6
		c0.8,0.4,1.4,1,1.9,1.8c0.4,0.8,0.7,1.7,0.7,2.8C681.7,293.1,681.7,293.4,681.6,293.7z M678.4,291.9c0-0.6-0.2-1-0.6-1.3
		c-0.4-0.3-0.9-0.5-1.4-0.5c-0.5,0-1,0.2-1.4,0.5c-0.4,0.3-0.6,0.8-0.7,1.3H678.4z"/>
</g>
<rect x="550" y="271.3" class="st2" width="173.4" height="40.1"/>
<rect x="528.8" y="51.5" class="st2" width="396.7" height="317.5"/>
<polyline class="st3" points="430.1,164.8 466.4,201.1 430.3,237.1 "/>
<polyline class="st3" points="983.8,164.8 1020,201.1 984,237.1 "/>
<polygon class="st4" points="1198.6,170.7 1087.4,170.7 1087.4,90.8 1114.1,90.8 1137.2,107.5 1198.6,107.5 "/>
<g>
	<path class="st0" d="M1251.7,265.1c1.1-2.1,2.7-3.7,4.8-4.8c2-1.2,4.3-1.7,6.9-1.7c3.2,0,5.9,0.8,8.1,2.5c2.3,1.7,3.8,4,4.5,6.8
		h-7.1c-0.5-1.1-1.3-2-2.3-2.5c-1-0.6-2.1-0.9-3.3-0.9c-2,0-3.6,0.7-4.9,2.1c-1.2,1.4-1.9,3.3-1.9,5.6c0,2.3,0.6,4.2,1.9,5.6
		c1.2,1.4,2.9,2.1,4.9,2.1c1.2,0,2.3-0.3,3.3-0.9c1-0.6,1.7-1.4,2.3-2.5h7.1c-0.8,2.9-2.3,5.2-4.5,6.8c-2.3,1.7-5,2.5-8.1,2.5
		c-2.6,0-4.9-0.6-6.9-1.7c-2-1.2-3.6-2.8-4.8-4.8c-1.1-2.1-1.7-4.4-1.7-7C1250,269.5,1250.5,267.2,1251.7,265.1z"/>
	<path class="st0" d="M1284.4,284.9c-1.5-0.6-2.8-1.6-3.7-2.8c-0.9-1.2-1.4-2.7-1.5-4.5h6.9c0.1,1,0.4,1.7,1,2.3
		c0.6,0.5,1.3,0.8,2.3,0.8c1,0,1.7-0.2,2.3-0.7c0.6-0.4,0.8-1.1,0.8-1.8c0-0.7-0.2-1.2-0.7-1.6c-0.4-0.4-1-0.8-1.6-1.1
		c-0.6-0.3-1.6-0.6-2.8-0.9c-1.7-0.5-3.1-1.1-4.2-1.6s-2-1.3-2.8-2.4c-0.8-1-1.2-2.4-1.2-4.1c0-2.5,0.9-4.4,2.7-5.8
		c1.8-1.4,4.1-2.1,7-2.1c2.9,0,5.3,0.7,7.1,2.1c1.8,1.4,2.8,3.4,2.9,5.9h-7c-0.1-0.9-0.4-1.5-0.9-2c-0.6-0.5-1.3-0.7-2.2-0.7
		c-0.8,0-1.4,0.2-1.9,0.6c-0.5,0.4-0.7,1-0.7,1.8c0,0.9,0.4,1.5,1.2,2c0.8,0.5,2.1,1,3.8,1.6c1.7,0.6,3.1,1.1,4.2,1.7
		c1.1,0.5,2,1.3,2.8,2.3c0.8,1,1.2,2.3,1.2,3.9c0,1.5-0.4,2.9-1.2,4.1c-0.8,1.2-1.9,2.2-3.4,3c-1.5,0.7-3.2,1.1-5.2,1.1
		C1287.7,285.8,1286,285.5,1284.4,284.9z"/>
	<path class="st0" d="M1328.4,258.9l-9.5,26.7h-8.1l-9.5-26.7h6.9l6.6,20.1l6.6-20.1H1328.4z"/>
	<path class="st0" d="M1345.7,280.5h8.5v5h-15v-26.7h6.5V280.5z"/>
	<path class="st0" d="M1357.8,261.1c-0.7-0.7-1.1-1.5-1.1-2.5c0-1,0.4-1.9,1.1-2.5c0.7-0.7,1.7-1,2.8-1c1.1,0,2,0.3,2.8,1
		c0.7,0.7,1.1,1.5,1.1,2.5c0,1-0.4,1.8-1.1,2.5c-0.7,0.7-1.6,1-2.8,1C1359.4,262.1,1358.5,261.8,1357.8,261.1z M1363.8,264.3v21.2
		h-6.5v-21.2H1363.8z"/>
	<path class="st0" d="M1372.2,284.9c-1.4-0.6-2.6-1.5-3.4-2.6c-0.8-1.1-1.3-2.3-1.4-3.7h6.4c0.1,0.7,0.4,1.3,1,1.8
		c0.6,0.5,1.4,0.7,2.2,0.7c0.8,0,1.4-0.2,1.9-0.5c0.4-0.3,0.7-0.7,0.7-1.2c0-0.6-0.3-1.1-0.9-1.3c-0.6-0.3-1.7-0.6-3.1-1
		c-1.5-0.4-2.8-0.7-3.8-1.1c-1-0.4-1.9-1-2.6-1.9c-0.7-0.8-1.1-2-1.1-3.4c0-1.2,0.3-2.3,1-3.3c0.7-1,1.7-1.8,3-2.4
		c1.3-0.6,2.9-0.9,4.7-0.9c2.7,0,4.8,0.7,6.3,2c1.5,1.3,2.4,3.1,2.6,5.2h-6c-0.1-0.7-0.4-1.3-1-1.7c-0.5-0.4-1.3-0.6-2.1-0.6
		c-0.8,0-1.3,0.1-1.7,0.4c-0.4,0.3-0.6,0.7-0.6,1.2c0,0.6,0.3,1.1,1,1.4s1.7,0.6,3,0.9c1.6,0.4,2.9,0.8,3.8,1.2c1,0.4,1.9,1,2.6,1.9
		c0.7,0.9,1.1,2,1.2,3.5c0,1.2-0.3,2.3-1,3.3c-0.7,1-1.7,1.7-3,2.3c-1.3,0.6-2.8,0.8-4.5,0.8
		C1375.3,285.8,1373.6,285.5,1372.2,284.9z"/>
	<path class="st0" d="M1401.5,280v5.5h-3.3c-2.4,0-4.2-0.6-5.5-1.7c-1.3-1.2-2-3-2-5.6v-8.4h-2.6v-5.4h2.6v-5.2h6.5v5.2h4.3v5.4
		h-4.3v8.5c0,0.6,0.2,1.1,0.5,1.4c0.3,0.3,0.8,0.4,1.5,0.4H1401.5z"/>
</g>
<polygon class="st4" points="1116.3,311.2 1116.3,237 1153,237 1169.6,254.8 1169.6,311.2 "/>
</svg>
