<?xml version="1.0" encoding="utf-8"?>
<!-- Generator: Adobe Illustrator 27.9.0, SVG Export Plug-In . SVG Version: 6.00 Build 0)  -->
<svg version="1.1" id="Layer_1" xmlns="http://www.w3.org/2000/svg" xmlns:xlink="http://www.w3.org/1999/xlink" x="0px" y="0px"
	 viewBox="0 0 1419 452" style="enable-background:new 0 0 1419 452;" xml:space="preserve">
<style type="text/css">
	.st0{fill:#FFFFFF;}
	.st1{fill:#022C44;}
	.st2{fill:none;}
	.st3{fill-rule:evenodd;clip-rule:evenodd;fill:#022C44;}
	.st4{fill:#18CAD6;}
	.st5{fill-rule:evenodd;clip-rule:evenodd;fill:#FFFFFF;}
	.st6{fill:none;stroke:#FFFFFF;stroke-miterlimit:10;}
	.st7{fill:none;stroke:#FFFFFF;stroke-miterlimit:10;stroke-dasharray:12.7345,12.7345;}
	.st8{fill:none;stroke:#FFFFFF;stroke-miterlimit:10;stroke-dasharray:11.5191,11.5191;}
</style>
<g transform="matrix(1.00282e-16,1.63773,-1.63773,1.00282e-16,533.957,139.707)">
	<g transform="matrix(1.98205e-16,-3.23694,3.36582,2.06097e-16,91.3655,861.487)">
	</g>
</g>
<path class="st0" d="M1275.2,48.9v0.6h-26.4v-0.6h-5.6v0.6h-129.6l0-0.6h-5.5h-15.3h-5.6l0,0.6h-17.7c-20.7,0-37.4,16.8-37.4,37.4
	v217.7c0,20.7,16.8,37.4,37.4,37.4h229.1c20.7,0,37.4-16.8,37.4-37.4V86.9c0-20.7-16.8-37.4-37.4-37.4h-17.9v-0.6H1275.2z"/>
<rect x="1159.8" y="145.4" class="st1" width="53.1" height="83.1"/>
<rect x="1248.9" y="48.9" class="st2" width="26.4" height="0.6"/>
<polygon class="st2" points="1113.8,49.4 1243.3,49.4 1243.3,48.9 1113.8,48.9 "/>
<path class="st3" d="M1290.3,280.3c-10.5,0-19.1,8.3-19.1,18.4c0,10.1,8.5,18.4,19.1,18.4s19.1-8.3,19.1-18.4
	C1309.4,288.6,1300.9,280.3,1290.3,280.3z M1290.3,285.9c7.4,0,13.5,5.7,13.5,12.9c0,7.1-6.1,12.9-13.5,12.9
	c-7.4,0-13.5-5.7-13.5-12.9C1276.8,291.6,1282.9,285.9,1290.3,285.9z"/>
<path class="st3" d="M1290.3,73.4c-10.5,0-19.1,8.3-19.1,18.4c0,10.1,8.5,18.4,19.1,18.4s19.1-8.3,19.1-18.4
	C1309.4,81.7,1300.9,73.4,1290.3,73.4z M1290.3,79c7.4,0,13.5,5.7,13.5,12.9c0,7.1-6.1,12.9-13.5,12.9c-7.4,0-13.5-5.7-13.5-12.9
	C1276.8,84.7,1282.9,79,1290.3,79z"/>
<path class="st3" d="M1080.9,280.3c-10.5,0-19.1,8.3-19.1,18.4c0,10.1,8.5,18.4,19.1,18.4s19.1-8.3,19.1-18.4
	C1099.9,288.6,1091.4,280.3,1080.9,280.3z M1080.9,285.9c7.4,0,13.5,5.7,13.5,12.9c0,7.1-6.1,12.9-13.5,12.9
	c-7.4,0-13.5-5.7-13.5-12.9C1067.4,291.6,1073.5,285.9,1080.9,285.9z"/>
<path class="st3" d="M1080.9,73.4c-10.5,0-19.1,8.3-19.1,18.4c0,10.1,8.5,18.4,19.1,18.4s19.1-8.3,19.1-18.4
	C1099.9,81.7,1091.4,73.4,1080.9,73.4z M1080.9,79c7.4,0,13.5,5.7,13.5,12.9c0,7.1-6.1,12.9-13.5,12.9c-7.4,0-13.5-5.7-13.5-12.9
	C1067.4,84.7,1073.5,79,1080.9,79z"/>
<g transform="matrix(6.27219,-3.59427e-24,2.08639e-23,-6.30692,5.31116,783.314)">
	<path class="st4" d="M185.3,100h5.8c0.3,0,0.5-0.2,0.5-0.5v-2.1c0-0.3-0.2-0.5-0.5-0.5h-5.8c-0.3,0-0.5,0.2-0.5,0.5v2.1
		C184.8,99.8,185,100,185.3,100"/>
</g>
<g transform="matrix(1.9236,0,0,2.00456,-16608.2,-7567.83)">
	<rect x="9239.4" y="3866.5" class="st5" width="22.2" height="19"/>
</g>
<path class="st0" d="M847.7,248.1c0-39-31.6-70.6-70.6-70.6c-9.8,0-19.1,2-27.5,5.6c0.3-1.8,0.5-3.7,0.5-5.6
	c0-19.6-15.9-35.5-35.5-35.5c-7.6,0-14.7,2.4-20.4,6.5c-19.3-38.7-59.2-65.3-105.4-65.3c-65,0-117.8,52.7-117.8,117.8
	c0,62.9,49.4,114.3,111.5,117.6v0.2h204.1v-0.7C821.1,313.4,847.7,283.9,847.7,248.1z"/>
<g>
	<path class="st0" d="M893.8,220.8h4.9l2.5,8.1c0.1,0.4,0.2,0.7,0.4,1.2c0.1,0.4,0.2,0.8,0.4,1.2c0.1,0.4,0.2,0.8,0.3,1.2
		c0.1,0.4,0.2,0.8,0.2,1.1h0.1c0.1-0.3,0.1-0.7,0.2-1.1c0.1-0.4,0.2-0.8,0.3-1.3c0.1-0.4,0.2-0.9,0.3-1.3c0.1-0.4,0.2-0.8,0.3-1.1
		l2.5-8.1h4.9l1.3,17.8h-3.7c-0.1-2-0.2-3.9-0.3-5.9c-0.1-2-0.2-3.9-0.2-5.9l0-2.3h-0.1c-0.2,1-0.5,2.1-0.8,3.3
		c-0.3,1.1-0.6,2.1-0.8,3l-2.5,7.9h-3l-2.6-8c-0.3-1-0.6-2.1-0.9-3.2c-0.3-1.1-0.5-2.1-0.7-3h-0.1c0,0.7,0,1.4,0,2.1
		c0,0.7,0,1.5-0.1,2.2c0,0.7-0.1,1.5-0.1,2.2c0,0.7-0.1,1.4-0.1,1.9l-0.3,5.7h-3.6L893.8,220.8z"/>
	<path class="st0" d="M924.3,220.4c1.3,0,2.4,0.2,3.5,0.6c1.1,0.4,2,1,2.8,1.8c0.8,0.8,1.4,1.8,1.8,2.9c0.4,1.2,0.7,2.5,0.7,3.9
		c0,2.1-0.5,3.9-1.4,5.4c-0.9,1.5-2.2,2.7-3.9,3.6l-3.3,1.8c0.4,0,0.8,0.1,1.2,0.2c0.4,0.1,0.8,0.3,1.2,0.4c0.4,0.1,0.9,0.3,1.3,0.4
		c0.5,0.1,1,0.2,1.5,0.2c0.5,0,0.9-0.1,1.4-0.2c0.5-0.2,0.8-0.3,1.1-0.6l1.4,2.6c-0.3,0.3-0.8,0.5-1.4,0.8c-0.6,0.3-1.4,0.4-2.3,0.4
		c-0.8,0-1.5-0.1-2.2-0.3c-0.7-0.2-1.4-0.4-2-0.6c-0.6-0.2-1.3-0.4-1.9-0.6c-0.6-0.2-1.2-0.3-1.8-0.3c-0.6,0-1.1,0.1-1.5,0.2
		c-0.5,0.1-0.9,0.3-1.4,0.6l-1.3-2.4l4.6-2.6c-2.1-0.4-3.8-1.3-5-2.9c-1.2-1.5-1.9-3.6-1.9-6.1c0-1.4,0.2-2.7,0.7-3.9
		c0.4-1.1,1.1-2.1,1.9-2.9c0.8-0.8,1.7-1.4,2.8-1.8C921.9,220.7,923,220.4,924.3,220.4z M919.5,229.7c0,1.1,0.1,2,0.4,2.8
		c0.2,0.8,0.6,1.5,1,2c0.4,0.5,0.9,0.9,1.5,1.2c0.6,0.3,1.2,0.4,1.8,0.4c0.7,0,1.3-0.1,1.9-0.4c0.6-0.3,1.1-0.7,1.5-1.2
		c0.4-0.5,0.8-1.2,1-2c0.2-0.8,0.4-1.7,0.4-2.7c0-1.1-0.1-2-0.4-2.8c-0.3-0.8-0.6-1.4-1-2c-0.4-0.5-0.9-0.9-1.5-1.1
		c-0.6-0.2-1.2-0.4-1.8-0.4c-0.7,0-1.3,0.1-1.8,0.4c-0.6,0.3-1.1,0.6-1.5,1.2c-0.4,0.5-0.8,1.2-1,2
		C919.7,227.7,919.5,228.6,919.5,229.7z"/>
	<path class="st0" d="M947.9,220.8v3.1h-5v14.8H939v-14.8h-4.9v-3.1H947.9z"/>
	<path class="st0" d="M962.7,220.8v3.1h-5v14.8h-3.9v-14.8h-4.9v-3.1H962.7z"/>
</g>
<g>
	<path class="st0" d="M285.2,213.9l2,8.2c0.1,0.2,0.1,0.6,0.2,1.1c0.1,0.5,0.2,1,0.3,1.5c0.1,0.5,0.2,1.1,0.3,1.6s0.2,1,0.2,1.3h0.1
		c0.1-0.4,0.1-0.8,0.2-1.3c0.1-0.5,0.2-1,0.3-1.6c0.1-0.5,0.2-1,0.3-1.5c0.1-0.5,0.2-0.8,0.2-1.1l2.1-8.2h4l2.1,8.2
		c0.1,0.2,0.1,0.6,0.2,1.1c0.1,0.5,0.2,1,0.3,1.5c0.1,0.5,0.2,1.1,0.3,1.6s0.2,1,0.2,1.3h0.1c0.1-0.4,0.1-0.8,0.2-1.3
		c0.1-0.5,0.2-1,0.3-1.6c0.1-0.5,0.2-1,0.3-1.5c0.1-0.5,0.2-0.9,0.2-1.1l1.9-8.2h3.9l-4.6,17.8h-4.2l-2.3-9.2
		c-0.2-0.8-0.4-1.5-0.5-2.2c-0.2-0.7-0.3-1.5-0.5-2.3h-0.1c-0.2,0.8-0.3,1.5-0.5,2.3c-0.2,0.7-0.3,1.5-0.5,2.2l-2.2,9.2H286
		l-4.6-17.8H285.2z"/>
	<path class="st0" d="M318.4,225.9h-9v0.1c0,1.1,0.4,1.9,1.1,2.4c0.8,0.5,1.7,0.8,2.9,0.8c0.8,0,1.4-0.1,2-0.2
		c0.6-0.1,1.1-0.3,1.6-0.5l0.7,2.6c-0.5,0.2-1.2,0.5-1.9,0.6c-0.8,0.2-1.7,0.3-2.7,0.3c-1,0-2-0.1-2.9-0.4c-0.9-0.3-1.7-0.7-2.3-1.3
		c-0.7-0.6-1.2-1.3-1.6-2.2c-0.4-0.9-0.6-1.9-0.6-3.1c0-1.1,0.2-2.1,0.5-2.9c0.3-0.9,0.8-1.6,1.4-2.3c0.6-0.6,1.3-1.1,2.1-1.5
		c0.8-0.3,1.8-0.5,2.8-0.5c1.8,0,3.3,0.6,4.4,1.7c1.1,1.1,1.6,2.7,1.6,4.7V225.9z M314.5,223.3c0-0.4,0-0.7-0.1-1
		c-0.1-0.3-0.2-0.6-0.4-0.9c-0.2-0.3-0.4-0.5-0.7-0.6c-0.3-0.1-0.6-0.2-1-0.2c-0.8,0-1.4,0.3-1.9,0.8c-0.5,0.5-0.8,1.2-0.9,2.1
		L314.5,223.3z"/>
	<path class="st0" d="M334.4,225c0,1.1-0.2,2-0.5,2.9c-0.3,0.9-0.8,1.6-1.3,2.2c-0.6,0.6-1.2,1.1-2,1.4c-0.8,0.3-1.6,0.5-2.5,0.5
		c-0.9,0-1.6-0.1-2.3-0.4c-0.6-0.3-1.2-0.7-1.6-1.1h-0.1l-0.3,1.2h-2.7v-20.2h3.7v7.8c0.5-0.4,1-0.8,1.7-1c0.6-0.2,1.3-0.4,2-0.4
		c1.8,0,3.3,0.6,4.3,1.9C333.9,221,334.4,222.8,334.4,225z M330.6,225.1c0-1.4-0.3-2.5-0.8-3.2c-0.5-0.7-1.3-1.1-2.3-1.1
		c-0.5,0-1,0.1-1.5,0.4c-0.5,0.3-0.8,0.5-1.1,0.9v6.2c0.2,0.3,0.6,0.5,0.9,0.7c0.4,0.2,0.8,0.3,1.2,0.3c0.5,0,0.9-0.1,1.3-0.3
		c0.4-0.2,0.8-0.4,1.1-0.8c0.3-0.3,0.6-0.8,0.8-1.3C330.5,226.4,330.6,225.8,330.6,225.1z"/>
	<path class="st0" d="M345.3,221.4c-1.1-0.5-2.2-0.8-3.2-0.8c-0.6,0-1.1,0.1-1.4,0.3c-0.3,0.2-0.5,0.5-0.5,0.9
		c0,0.4,0.1,0.7,0.4,0.9c0.3,0.2,0.9,0.5,1.8,0.7l0.8,0.3c1.2,0.3,2.1,0.8,2.7,1.5c0.6,0.6,0.9,1.5,0.9,2.5c0,1.3-0.5,2.4-1.5,3.2
		c-1,0.8-2.4,1.2-4.2,1.2c-1.8,0-3.3-0.3-4.6-1l0.9-2.8c0.5,0.3,1.1,0.5,1.7,0.7c0.6,0.2,1.2,0.3,1.8,0.3c0.8,0,1.3-0.1,1.7-0.4
		c0.4-0.2,0.5-0.5,0.5-0.9c0-0.4-0.2-0.7-0.5-0.9c-0.3-0.2-1-0.5-1.9-0.7l-0.9-0.3c-1.1-0.4-2-0.9-2.5-1.5c-0.5-0.6-0.8-1.5-0.8-2.5
		c0-1.2,0.5-2.2,1.4-3c0.9-0.8,2.2-1.2,3.9-1.2c1.6,0,3.1,0.3,4.4,0.9L345.3,221.4z"/>
	<path class="st0" d="M362.6,224.8c0,1.1-0.2,2.1-0.5,3c-0.4,0.9-0.9,1.6-1.5,2.3c-0.6,0.6-1.4,1.1-2.2,1.4
		c-0.9,0.3-1.8,0.5-2.7,0.5c-1,0-1.9-0.1-2.7-0.5c-0.8-0.3-1.6-0.7-2.2-1.3c-0.6-0.6-1.1-1.3-1.4-2.2c-0.4-0.9-0.5-1.8-0.5-2.9
		c0-1.1,0.2-2.2,0.5-3.1c0.4-0.9,0.9-1.7,1.5-2.3c0.6-0.6,1.4-1.1,2.2-1.4c0.9-0.3,1.8-0.5,2.7-0.5c1,0,1.9,0.2,2.7,0.5
		c0.8,0.3,1.6,0.7,2.2,1.3c0.6,0.6,1.1,1.3,1.4,2.2C362.4,222.7,362.6,223.7,362.6,224.8z M358.7,225c0-0.8-0.1-1.4-0.3-2
		c-0.2-0.5-0.4-1-0.7-1.3c-0.3-0.3-0.6-0.6-1-0.8c-0.4-0.2-0.8-0.2-1.2-0.2c-0.4,0-0.8,0.1-1.1,0.2c-0.4,0.1-0.7,0.4-1,0.7
		c-0.3,0.3-0.5,0.8-0.7,1.3c-0.2,0.5-0.3,1.2-0.3,2.1c0,0.7,0.1,1.4,0.3,1.9c0.2,0.5,0.4,1,0.7,1.3c0.3,0.3,0.6,0.6,1,0.8
		c0.4,0.2,0.8,0.3,1.1,0.3s0.8-0.1,1.1-0.2c0.4-0.1,0.7-0.4,1-0.7c0.3-0.3,0.5-0.8,0.7-1.3C358.6,226.4,358.7,225.8,358.7,225z"/>
	<path class="st0" d="M372.3,229.2c0.6,0,1.1-0.1,1.6-0.2c0.5-0.2,0.8-0.3,1.1-0.5l0.7,2.6c-0.4,0.2-0.9,0.4-1.6,0.6
		c-0.7,0.2-1.5,0.3-2.3,0.3c-1,0-2-0.1-2.9-0.5c-0.9-0.3-1.7-0.7-2.3-1.3c-0.6-0.6-1.2-1.3-1.5-2.2c-0.4-0.9-0.6-1.9-0.6-3
		c0-1.1,0.2-2,0.5-2.9c0.4-0.9,0.9-1.6,1.5-2.2c0.6-0.6,1.4-1.1,2.3-1.4c0.9-0.3,1.9-0.5,3-0.5c0.6,0,1.2,0.1,1.9,0.2
		c0.7,0.1,1.3,0.4,2.1,0.7l-0.8,2.6c-0.4-0.2-0.8-0.4-1.3-0.6c-0.5-0.1-0.9-0.2-1.4-0.2c-1.2,0-2.1,0.4-2.8,1.1
		c-0.7,0.7-1.1,1.8-1.1,3.1c0,0.8,0.1,1.5,0.4,2.1c0.2,0.6,0.5,1,0.9,1.3c0.4,0.3,0.8,0.6,1.3,0.7
		C371.4,229.2,371.9,229.2,372.3,229.2z"/>
	<path class="st0" d="M382.1,227.2v4.5h-3.7v-20.2h3.7v12l4.5-5.3h4.6l-5.2,5.7l5.5,7.8H387l-3.8-5.6L382.1,227.2z"/>
	<path class="st0" d="M404.7,225.9h-9v0.1c0,1.1,0.4,1.9,1.1,2.4c0.8,0.5,1.7,0.8,2.9,0.8c0.8,0,1.4-0.1,2-0.2
		c0.6-0.1,1.1-0.3,1.6-0.5l0.7,2.6c-0.5,0.2-1.2,0.5-1.9,0.6c-0.8,0.2-1.7,0.3-2.7,0.3c-1,0-2-0.1-2.9-0.4c-0.9-0.3-1.7-0.7-2.3-1.3
		c-0.7-0.6-1.2-1.3-1.6-2.2c-0.4-0.9-0.6-1.9-0.6-3.1c0-1.1,0.2-2.1,0.5-2.9c0.3-0.9,0.8-1.6,1.4-2.3c0.6-0.6,1.3-1.1,2.1-1.5
		c0.8-0.3,1.8-0.5,2.8-0.5c1.8,0,3.3,0.6,4.4,1.7c1.1,1.1,1.6,2.7,1.6,4.7V225.9z M400.9,223.3c0-0.4,0-0.7-0.1-1
		c-0.1-0.3-0.2-0.6-0.4-0.9c-0.2-0.3-0.4-0.5-0.7-0.6c-0.3-0.1-0.6-0.2-1-0.2c-0.8,0-1.4,0.3-1.9,0.8c-0.5,0.5-0.8,1.2-0.9,2.1
		L400.9,223.3z"/>
	<path class="st0" d="M415.5,220.9h-3.6v6.2c0,0.6,0.1,1.1,0.4,1.3c0.3,0.2,0.7,0.4,1.2,0.4c0.4,0,0.8,0,1.2-0.1
		c0.4-0.1,0.7-0.2,1-0.3l0.6,2.6c-0.3,0.2-0.8,0.3-1.4,0.5c-0.6,0.2-1.3,0.2-2,0.2c-1.6,0-2.8-0.3-3.5-1s-1-1.6-1-2.9v-6.9H406v-2.7
		h2.1V214h3.7v4.2h3.6V220.9z"/>
	<path class="st0" d="M426.4,221.4c-1.1-0.5-2.2-0.8-3.2-0.8c-0.6,0-1.1,0.1-1.4,0.3c-0.3,0.2-0.5,0.5-0.5,0.9
		c0,0.4,0.1,0.7,0.4,0.9c0.3,0.2,0.9,0.5,1.8,0.7l0.8,0.3c1.2,0.3,2.1,0.8,2.7,1.5c0.6,0.6,0.9,1.5,0.9,2.5c0,1.3-0.5,2.4-1.5,3.2
		c-1,0.8-2.4,1.2-4.2,1.2c-1.8,0-3.3-0.3-4.6-1l0.9-2.8c0.5,0.3,1.1,0.5,1.7,0.7c0.6,0.2,1.2,0.3,1.8,0.3c0.8,0,1.3-0.1,1.7-0.4
		c0.4-0.2,0.5-0.5,0.5-0.9c0-0.4-0.2-0.7-0.5-0.9c-0.3-0.2-1-0.5-1.9-0.7l-0.9-0.3c-1.1-0.4-2-0.9-2.5-1.5c-0.5-0.6-0.8-1.5-0.8-2.5
		c0-1.2,0.5-2.2,1.4-3c0.9-0.8,2.2-1.2,3.9-1.2c1.6,0,3.1,0.3,4.4,0.9L426.4,221.4z"/>
</g>
<g>
	<path class="st0" d="M139.8,226.8l3,9.1c0.1,0.3,0.2,0.7,0.3,1.1c0.1,0.4,0.3,0.9,0.4,1.3c0.1,0.5,0.3,0.9,0.4,1.4
		c0.1,0.5,0.2,0.9,0.3,1.2h0.1c0.1-0.7,0.4-1.5,0.7-2.5c0.3-0.9,0.6-1.8,0.8-2.5l3-9.1h4l-6.4,17.8h-4.2l-6.5-17.8H139.8z"/>
	<path class="st0" d="M163.3,231.2h3.8v13.5h-2.8l-0.4-1.5h-0.1c-0.2,0.2-0.4,0.4-0.7,0.6c-0.3,0.2-0.6,0.4-1,0.6
		c-0.4,0.2-0.8,0.3-1.2,0.4c-0.5,0.1-1,0.2-1.5,0.2c-1.5,0-2.6-0.4-3.4-1.2c-0.8-0.8-1.3-2-1.3-3.6v-9h3.8v8.7
		c0,0.8,0.2,1.4,0.6,1.8c0.4,0.4,0.9,0.5,1.5,0.5c0.7,0,1.3-0.1,1.7-0.4c0.5-0.3,0.9-0.6,1.1-1V231.2z"/>
	<path class="st0" d="M182.5,238.9h-9v0.1c0,1.1,0.4,1.9,1.1,2.4c0.8,0.5,1.7,0.8,2.9,0.8c0.8,0,1.4-0.1,2-0.2
		c0.6-0.1,1.1-0.3,1.6-0.5l0.7,2.6c-0.5,0.2-1.2,0.5-1.9,0.6c-0.8,0.2-1.7,0.3-2.7,0.3c-1,0-2-0.1-2.9-0.4c-0.9-0.3-1.7-0.7-2.3-1.3
		s-1.2-1.3-1.6-2.2c-0.4-0.9-0.6-1.9-0.6-3.1c0-1.1,0.2-2.1,0.5-2.9c0.3-0.9,0.8-1.6,1.4-2.3c0.6-0.6,1.3-1.1,2.1-1.5
		c0.8-0.4,1.8-0.5,2.8-0.5c1.8,0,3.3,0.6,4.4,1.7c1.1,1.1,1.6,2.7,1.6,4.7V238.9z M178.6,236.3c0-0.4,0-0.7-0.1-1
		c-0.1-0.3-0.2-0.6-0.4-0.9c-0.2-0.3-0.4-0.5-0.7-0.6c-0.3-0.2-0.6-0.2-1-0.2c-0.8,0-1.4,0.3-1.9,0.8c-0.5,0.5-0.8,1.2-0.9,2.1
		L178.6,236.3z"/>
	<path class="st0" d="M189.8,226.8v14.6c0,0.7,0,1.4-0.1,2c0,0.6-0.1,1.1-0.2,1.6c-0.1,0.5-0.3,0.9-0.5,1.3
		c-0.2,0.4-0.4,0.8-0.8,1.1c-0.6,0.7-1.4,1.2-2.3,1.5c-0.9,0.3-1.9,0.4-3,0.4v-3c0.5,0,0.9-0.1,1.3-0.2c0.4-0.1,0.7-0.3,0.9-0.6
		c0.3-0.3,0.6-0.7,0.7-1.2c0.1-0.5,0.2-1,0.2-1.6v-16.1H189.8z"/>
	<path class="st0" d="M199.4,226.5c1.1,0,2.2,0.1,3.1,0.3c0.9,0.2,1.7,0.5,2.4,0.9l-0.9,2.9c-0.8-0.4-1.5-0.7-2.2-0.9
		c-0.7-0.2-1.4-0.3-2.1-0.3c-0.9,0-1.6,0.2-2.1,0.5c-0.5,0.4-0.7,0.8-0.7,1.4c0,0.6,0.2,1.1,0.6,1.4c0.4,0.3,1.1,0.6,2.1,0.9
		l1.7,0.5c1.4,0.5,2.5,1.1,3.3,2s1.2,1.9,1.2,3.2c0,0.8-0.1,1.5-0.4,2.1c-0.3,0.7-0.7,1.2-1.3,1.7c-0.6,0.5-1.3,0.9-2.1,1.2
		c-0.8,0.3-1.8,0.4-3,0.4c-2.1,0-4.1-0.4-5.9-1.3l0.9-2.9c0.8,0.4,1.6,0.7,2.4,0.9c0.8,0.2,1.6,0.3,2.4,0.3c1,0,1.8-0.2,2.3-0.6
		c0.5-0.4,0.8-0.9,0.8-1.5c0-0.2,0-0.4-0.1-0.7c-0.1-0.2-0.2-0.4-0.5-0.6s-0.5-0.4-0.9-0.6c-0.4-0.2-0.9-0.4-1.5-0.6l-1.5-0.5
		c-0.7-0.2-1.3-0.5-1.8-0.8c-0.5-0.3-1-0.6-1.4-1c-0.4-0.4-0.7-0.9-0.9-1.4c-0.2-0.5-0.3-1.2-0.3-1.9c0-0.8,0.1-1.5,0.4-2.1
		c0.3-0.7,0.7-1.2,1.3-1.7c0.6-0.5,1.2-0.8,2.1-1.1C197.4,226.7,198.4,226.5,199.4,226.5z"/>
</g>
<g>
	<path class="st1" d="M609.7,257.5h4l6.6,17.8h-4.1l-1.4-4.1h-6.3l-1.4,4.1h-4L609.7,257.5z M609.4,268.3h4.5l-0.8-2.4
		c-0.3-0.7-0.5-1.5-0.7-2.2c-0.2-0.7-0.4-1.5-0.7-2.3h-0.1c-0.2,0.7-0.4,1.5-0.7,2.2c-0.2,0.7-0.5,1.5-0.8,2.3L609.4,268.3z"/>
	<path class="st1" d="M623.7,257.5l2,8.2c0.1,0.2,0.1,0.6,0.2,1.1c0.1,0.5,0.2,1,0.3,1.5c0.1,0.5,0.2,1.1,0.3,1.6
		c0.1,0.5,0.2,1,0.2,1.3h0.1c0.1-0.4,0.1-0.8,0.2-1.3c0.1-0.5,0.2-1,0.3-1.6c0.1-0.5,0.2-1,0.3-1.5c0.1-0.5,0.2-0.8,0.2-1.1l2.1-8.2
		h4l2.1,8.2c0.1,0.2,0.1,0.6,0.2,1.1c0.1,0.5,0.2,1,0.3,1.5c0.1,0.5,0.2,1.1,0.3,1.6c0.1,0.5,0.2,1,0.2,1.3h0.1
		c0.1-0.4,0.1-0.8,0.2-1.3c0.1-0.5,0.2-1,0.3-1.6c0.1-0.5,0.2-1,0.3-1.5c0.1-0.5,0.2-0.9,0.2-1.1l1.9-8.2h3.9l-4.6,17.8H635
		l-2.3-9.2c-0.2-0.8-0.4-1.5-0.5-2.2c-0.2-0.7-0.3-1.5-0.5-2.3h-0.1c-0.2,0.8-0.3,1.5-0.5,2.3c-0.2,0.7-0.3,1.5-0.5,2.2l-2.2,9.2
		h-4.2l-4.6-17.8H623.7z"/>
	<path class="st1" d="M651.8,257.1c1.1,0,2.2,0.1,3.1,0.3s1.7,0.5,2.4,0.9l-0.9,2.9c-0.8-0.4-1.5-0.7-2.2-0.9
		c-0.7-0.2-1.4-0.3-2.1-0.3c-0.9,0-1.6,0.2-2.1,0.5c-0.5,0.4-0.7,0.8-0.7,1.4c0,0.6,0.2,1.1,0.6,1.4c0.4,0.3,1.1,0.6,2.1,0.9
		l1.7,0.5c1.4,0.5,2.5,1.1,3.3,2c0.8,0.9,1.2,1.9,1.2,3.2c0,0.8-0.1,1.5-0.4,2.1c-0.3,0.7-0.7,1.2-1.3,1.7c-0.6,0.5-1.3,0.9-2.1,1.2
		c-0.8,0.3-1.8,0.4-3,0.4c-2.1,0-4.1-0.4-5.9-1.3l0.9-2.9c0.8,0.4,1.6,0.7,2.4,0.9c0.8,0.2,1.6,0.3,2.4,0.3c1,0,1.8-0.2,2.3-0.6
		c0.5-0.4,0.8-0.9,0.8-1.5c0-0.2,0-0.4-0.1-0.7c-0.1-0.2-0.2-0.4-0.5-0.6s-0.5-0.4-0.9-0.6s-0.9-0.4-1.5-0.6l-1.5-0.5
		c-0.7-0.2-1.3-0.5-1.8-0.8c-0.5-0.3-1-0.6-1.4-1s-0.7-0.9-0.9-1.4c-0.2-0.5-0.3-1.2-0.3-1.9c0-0.8,0.1-1.5,0.4-2.1
		c0.3-0.7,0.7-1.2,1.3-1.7c0.6-0.5,1.2-0.8,2.1-1.1C649.8,257.3,650.7,257.1,651.8,257.1z"/>
	<path class="st1" d="M673.1,257.5v17.8h-3.9v-17.8H673.1z"/>
	<path class="st1" d="M689.9,268.4c0,1.1-0.2,2.1-0.5,3c-0.4,0.9-0.9,1.6-1.5,2.2c-0.6,0.6-1.4,1.1-2.2,1.4
		c-0.9,0.3-1.8,0.5-2.7,0.5c-1,0-1.9-0.2-2.7-0.5c-0.8-0.3-1.6-0.7-2.2-1.3c-0.6-0.6-1.1-1.3-1.4-2.2c-0.4-0.9-0.5-1.8-0.5-2.9
		c0-1.2,0.2-2.2,0.5-3.1c0.4-0.9,0.9-1.7,1.5-2.3c0.6-0.6,1.4-1.1,2.2-1.4c0.9-0.3,1.8-0.5,2.7-0.5s1.9,0.2,2.7,0.5
		c0.8,0.3,1.6,0.7,2.2,1.3c0.6,0.6,1.1,1.3,1.4,2.2C689.7,266.3,689.9,267.3,689.9,268.4z M686,268.6c0-0.8-0.1-1.4-0.3-2
		c-0.2-0.5-0.4-1-0.7-1.3s-0.6-0.6-1-0.7c-0.4-0.2-0.8-0.2-1.2-0.2c-0.4,0-0.8,0.1-1.1,0.2c-0.4,0.1-0.7,0.4-1,0.7
		c-0.3,0.3-0.5,0.8-0.7,1.3c-0.2,0.5-0.3,1.2-0.3,2.1c0,0.7,0.1,1.4,0.3,1.9c0.2,0.5,0.4,1,0.7,1.3c0.3,0.3,0.6,0.6,1,0.8
		c0.4,0.2,0.8,0.3,1.1,0.3s0.8-0.1,1.1-0.2c0.4-0.1,0.7-0.4,1-0.7c0.3-0.3,0.5-0.8,0.7-1.3S686,269.4,686,268.6z"/>
	<path class="st1" d="M703.3,257.5v3.1h-5v14.8h-3.9v-14.8h-4.9v-3.1H703.3z"/>
</g>
<g>
	<g>
		<line class="st6" x1="829.1" y1="251.6" x2="835.1" y2="251.6"/>
		<line class="st7" x1="847.9" y1="251.6" x2="1019.8" y2="251.6"/>
		<line class="st6" x1="1026.1" y1="251.6" x2="1032.1" y2="251.6"/>
	</g>
</g>
<g>
	<g>
		<line class="st6" x1="240.7" y1="251.6" x2="246.7" y2="251.6"/>
		<line class="st8" x1="258.2" y1="251.6" x2="505.9" y2="251.6"/>
		<line class="st6" x1="511.7" y1="251.6" x2="517.7" y2="251.6"/>
	</g>
</g>
<path class="st0" d="M218.1,130.2h-88.4c-12.5,0-22.6,10.1-22.6,22.6v183.8c0,12.5,10.1,22.6,22.6,22.6h88.4
	c12.5,0,22.6-10.1,22.6-22.6V152.8C240.7,140.3,230.6,130.2,218.1,130.2z M230.4,335.7h-113v-182h113V335.7z"/>
</svg>
