<?xml version="1.0" encoding="UTF-8"?>
<svg id="a" data-name="Layer 1" xmlns="http://www.w3.org/2000/svg" viewBox="0 0 566.93 278.62">
  <rect width="566.93" height="278.62" fill="#fff" stroke-width="0"/>
  <path d="m414.28,161.47v7.88c0,3.38,2.75,6.13,6.13,6.13h110.74c3.38,0,6.13-2.75,6.13-6.13v-6.64s.09,0,.14,0h4.93c1.28,0,2.6-1.29,2.6-3.13v-19.91c0-.87-2.39-72.44-3.35-86.75-.11-1.69-.27-2.69-.35-2.87-.31-.76-.9-.87-1.24-.88h-.06c-.31,0-.96.06-1.3.88-.07.18-.23,1.19-.35,2.87-.99,14.31-3.49,85.88-3.49,86.75v5.59c-1.03-.76-2.29-1.22-3.67-1.22h-110.74c-3.38,0-6.13,2.75-6.13,6.13v8.38c-22.02-.28-39.16-14.56-39.56-37.46-.31-18.07-.02-49.89-.02-63.36,0-22.55-21.19-37.31-40.89-37.85-19.56-.53-41.03,14.31-41.3,41.27h-7.18c-.8,0-1.45.65-1.45,1.45v14.45h-67.84l.4-18.17c.01-.39-.14-.77-.41-1.05-.28-.28-.65-.44-1.04-.44h-5.84c-.92-23.17-20.39-37.69-41.7-37.69s-40.68,16.86-40.68,41.18c0,32.5.05,95.78.05,127.61,0,19.01-16.26,37.24-36.04,37.24-14.21,0-24.43-4.41-31.08-12.3-6.7-7.95-9.76-19.36-9.76-33.12v-21.22h12.82c5.63,0,10.19-4.56,10.19-10.19v-49.42c0-5.63-4.57-10.19-10.19-10.19H27.17c-5.63,0-10.19,4.56-10.19,10.19v49.42c0,5.63,4.56,10.19,10.19,10.19h19.85v21.22c0,14.56,3.36,26.59,10.45,35,7.13,8.47,18.05,13.33,33.3,13.33,21.34,0,38.94-19.62,38.94-40.14,0-31.83-.05-95.1-.05-127.61,0-22.6,17.49-38.27,37.78-38.27s37.87,13.34,38.79,34.78h-2.19c-.79,0-1.43.63-1.45,1.42l-.4,18.23h-9.29c-10.82,0-19.61,8.78-19.61,19.6v114c0,10.82,8.79,19.61,19.61,19.61h119.99c10.82,0,19.6-8.79,19.6-19.61v-114c0-10.82-8.78-19.6-19.6-19.6h-9.38v-14.45c0-.8-.65-1.45-1.45-1.45h-6.65c.27-25.03,20.16-38.86,38.32-38.36,18.26.49,38.06,14.03,38.06,34.94,0,13.48-.29,45.33.02,63.41.43,24.62,18.79,40.04,42.47,40.33Zm-376.2-15.35c-.17.69.19,1.4.85,1.68.66.28,1.42.03,1.79-.57l16.88-27.03c.29-.46.29-1.05.02-1.52-.28-.47-.8-.74-1.35-.7l-11.86.8,1.58-15.83c.07-.69-.36-1.32-1.01-1.53-.65-.21-1.37.07-1.71.67l-13.64,24.31c-.26.46-.25,1.01.02,1.46.27.44.76.72,1.28.7l11.44-.26-4.29,17.82Zm4.92-8.03l2.64-10.95c.1-.44,0-.91-.28-1.26-.28-.35-.71-.55-1.17-.54l-10.78.25,8.99-16.02-1.06,10.62c-.04.43.1.85.4,1.16.3.31.72.47,1.14.44l10.74-.72-10.63,17.02Zm257.6-61.02h-13.82v-13h13.82v13Zm-92.04-16.75c-.24.17-.52.27-.84.27s-.6-.1-.84-.27h-1.41l-.36,16.45h8.03l.36-16.45h-4.93Z" fill="#022c44" fill-rule="evenodd" stroke-width="0"/>
  <path d="m308.51,197.98c-5.52,0-9.98,4.34-9.98,9.65s4.45,9.65,9.98,9.65,9.98-4.34,9.98-9.65-4.45-9.65-9.98-9.65Zm0,2.91c3.89,0,7.07,3.01,7.07,6.74s-3.18,6.74-7.07,6.74-7.07-3.01-7.07-6.74,3.18-6.74,7.07-6.74Z" fill="#fff" fill-rule="evenodd" stroke-width="0"/>
  <path d="m308.51,89.63c-5.52,0-9.98,4.34-9.98,9.65s4.45,9.65,9.98,9.65,9.98-4.34,9.98-9.65-4.45-9.65-9.98-9.65Zm0,2.91c3.89,0,7.07,3.01,7.07,6.74s-3.18,6.74-7.07,6.74-7.07-3.01-7.07-6.74,3.18-6.74,7.07-6.74Z" fill="#fff" fill-rule="evenodd" stroke-width="0"/>
  <path d="m198.83,197.98c-5.52,0-9.98,4.34-9.98,9.65s4.45,9.65,9.98,9.65,9.98-4.34,9.98-9.65-4.45-9.65-9.98-9.65Zm0,2.91c3.89,0,7.07,3.01,7.07,6.74s-3.18,6.74-7.07,6.74-7.07-3.01-7.07-6.74,3.18-6.74,7.07-6.74Z" fill="#fff" fill-rule="evenodd" stroke-width="0"/>
  <path d="m198.83,89.63c-5.52,0-9.98,4.34-9.98,9.65s4.45,9.65,9.98,9.65,9.98-4.34,9.98-9.65-4.45-9.65-9.98-9.65Zm0,2.91c3.89,0,7.07,3.01,7.07,6.74s-3.18,6.74-7.07,6.74-7.07-3.01-7.07-6.74,3.18-6.74,7.07-6.74Z" fill="#fff" fill-rule="evenodd" stroke-width="0"/>
  <g>
    <path d="m244.29,131.03h19.16c.94,0,1.7.73,1.7,1.64v7.08c0,.91-.76,1.64-1.7,1.64h-19.16c-.94,0-1.7-.73-1.7-1.64v-7.08c0-.9.76-1.64,1.7-1.64" fill="#18cad6" stroke-width="0"/>
    <rect x="243.16" y="146.52" width="21.5" height="20.78" fill="#fff" stroke-width="0"/>
  </g>
  <path d="m254.06,175.44c-11.72,0-21.24,9.51-21.24,21.24s9.52,21.24,21.24,21.24,21.24-9.51,21.24-21.24-9.51-21.24-21.24-21.24Zm0,2.9c10.12,0,18.33,8.22,18.33,18.33s-8.21,18.33-18.33,18.33-18.33-8.22-18.33-18.33,8.21-18.33,18.33-18.33Z" fill="#022c44" fill-rule="evenodd" stroke-width="0"/>
  <rect x="345.7" width="212.43" height="207.63" fill="#fff" stroke-width="0"/>
  <rect x="248.07" width="212.43" height="76.77" fill="#fff" stroke-width="0"/>
  <g>
    <rect x="246.31" y="126.31" width="15.49" height="68.96" transform="translate(188.11 -132.55) rotate(45)" fill="#f71414" stroke-width="0"/>
    <rect x="246.31" y="126.31" width="15.49" height="68.96" transform="translate(-39.29 226.74) rotate(-45)" fill="#f71414" stroke-width="0"/>
  </g>
  <g>
    <rect x="421.8" y="70.57" width="90.27" height="160.18" rx="13.89" ry="13.89" fill="#022c44" stroke="#022c44" stroke-miterlimit="10"/>
    <rect x="427.29" y="85.9" width="79.57" height="130.56" fill="#fff" stroke-width="0"/>
  </g>
  <g>
    <rect x="459.19" y="120.06" width="15.49" height="68.96" transform="translate(246.04 -284.91) rotate(45)" fill="#f71414" stroke-width="0"/>
    <rect x="459.19" y="120.06" width="15.49" height="68.96" transform="translate(27.49 375.44) rotate(-45)" fill="#f71414" stroke-width="0"/>
  </g>
</svg>